{"glyphs":{"0":{"ha":883,"x_min":0,"x_max":0,"o":"m 442 -14 b 808 458 685 -14 808 149 b 442 931 808 768 685 931 b 75 458 199 931 75 768 b 442 -14 75 149 199 -14 z m 442 140 b 267 458 324 140 267 240 b 442 776 267 676 324 776 b 617 458 560 776 617 676 b 442 140 617 240 560 140 z "},"1":{"ha":594,"x_min":0,"x_max":0,"o":"m 321 917 b 43 758 274 849 126 768 l 68 597 b 292 718 149 613 228 660 b 290 683 290 706 290 694 l 290 0 l 476 0 l 476 917 z "},"2":{"ha":821,"x_min":0,"x_max":0,"o":"m 90 0 l 751 0 l 751 154 l 499 154 b 331 149 451 154 371 151 l 331 150 b 738 639 608 321 738 463 b 407 931 738 792 629 931 b 61 633 208 931 74 821 l 226 571 b 396 774 232 700 293 774 b 544 628 490 774 544 713 b 90 131 544 488 424 353 z "},"3":{"ha":818,"x_min":0,"x_max":0,"o":"m 411 931 b 81 708 247 931 117 860 l 251 646 b 403 776 264 732 318 776 b 533 647 486 776 535 732 b 383 525 533 565 483 525 l 344 525 l 344 392 l 390 392 b 554 274 500 392 553 360 b 400 140 556 193 497 140 b 228 289 299 140 247 189 l 54 211 b 399 -14 107 57 219 -14 b 742 249 601 -14 742 93 b 551 460 742 394 636 460 l 551 464 b 724 681 618 464 724 535 b 411 931 724 825 613 931 z "},"4":{"ha":879,"x_min":0,"x_max":0,"o":"m 831 354 l 682 354 l 682 917 l 453 917 l 51 317 l 51 215 l 508 215 l 508 0 l 682 0 l 682 215 l 831 215 z m 426 633 b 510 785 456 678 489 736 l 513 785 l 508 635 l 508 354 l 236 354 z "},"5":{"ha":808,"x_min":0,"x_max":0,"o":"m 456 590 b 260 521 368 590 300 564 l 258 521 b 263 547 258 524 261 535 l 289 763 l 696 763 l 696 917 l 144 917 l 88 397 l 238 381 b 406 447 274 426 333 447 b 565 293 510 447 564 393 b 401 139 565 194 503 139 b 231 275 293 139 253 192 l 58 179 b 403 -14 129 46 238 -14 b 743 306 599 -14 743 93 b 456 590 743 474 635 590 z "},"6":{"ha":857,"x_min":0,"x_max":0,"o":"m 467 931 b 81 458 247 931 81 776 b 451 -14 81 163 213 -14 b 790 285 664 -14 790 103 b 490 574 790 461 667 574 b 257 436 385 574 288 531 l 253 436 l 253 460 b 454 772 253 646 336 772 b 614 656 543 772 592 728 l 775 731 b 467 931 722 875 614 931 z m 454 433 b 610 288 553 433 610 378 b 454 139 610 193 553 139 b 297 288 360 139 297 196 b 454 433 297 375 360 433 z "},"7":{"ha":826,"x_min":0,"x_max":0,"o":"m 57 917 l 57 760 l 592 760 b 281 0 378 536 281 283 l 472 0 b 783 771 472 292 553 540 l 783 917 z "},"8":{"ha":865,"x_min":0,"x_max":0,"o":"m 432 928 b 108 678 233 928 108 833 b 249 475 108 582 160 510 l 249 474 b 75 244 139 436 75 357 b 432 -14 75 86 213 -14 b 790 244 653 -14 790 86 b 618 474 790 358 725 436 l 618 475 b 757 678 706 510 757 583 b 432 928 757 833 632 928 z m 432 781 b 574 660 519 781 574 736 b 432 539 574 585 518 539 b 292 660 347 539 292 585 b 432 781 292 736 346 781 z m 432 135 b 263 268 328 135 263 185 b 432 403 263 353 329 403 b 601 268 536 403 601 353 b 432 135 601 185 539 135 z "},"9":{"ha":858,"x_min":0,"x_max":0,"o":"m 413 931 b 71 625 200 931 71 814 b 372 331 71 444 201 331 b 604 471 474 331 579 371 l 610 471 l 610 451 b 410 139 610 257 554 139 b 254 264 310 139 275 188 l 78 189 b 408 -14 133 51 240 -14 b 783 456 644 -14 783 135 b 413 931 783 756 651 931 z m 410 774 b 565 625 504 774 565 715 b 410 478 565 536 504 478 b 254 625 310 478 254 533 b 410 774 254 718 310 774 z "}," ":{"ha":425,"x_min":0,"x_max":0,"o":""},"A":{"ha":932,"x_min":0,"x_max":0,"o":"m 717 0 l 915 0 l 581 917 l 351 917 l 17 0 l 213 0 l 288 224 l 640 224 z m 335 365 l 424 626 l 463 763 l 465 763 l 507 624 l 593 365 z "},"Á":{"ha":932,"x_min":0,"x_max":0,"o":"m 647 1229 l 458 1229 l 381 1014 l 524 1014 z m 717 0 l 915 0 l 581 917 l 351 917 l 17 0 l 213 0 l 288 224 l 640 224 z m 335 365 l 424 626 l 463 763 l 465 763 l 507 624 l 593 365 z "},"Ă":{"ha":932,"x_min":0,"x_max":0,"o":"m 465 1004 b 689 1222 603 1004 689 1089 l 560 1222 b 465 1118 560 1164 522 1118 b 371 1222 408 1118 371 1164 l 242 1222 b 465 1004 242 1089 328 1004 z m 717 0 l 915 0 l 581 917 l 351 917 l 17 0 l 213 0 l 288 224 l 640 224 z m 335 365 l 424 626 l 463 763 l 465 763 l 507 624 l 593 365 z "},"Â":{"ha":932,"x_min":0,"x_max":0,"o":"m 465 1144 l 568 1008 l 715 1008 l 561 1240 l 369 1240 l 215 1008 l 363 1008 z m 717 0 l 915 0 l 581 917 l 351 917 l 17 0 l 213 0 l 288 224 l 640 224 z m 335 365 l 424 626 l 463 763 l 465 763 l 507 624 l 593 365 z "},"Ä":{"ha":932,"x_min":0,"x_max":0,"o":"m 318 1007 b 422 1104 383 1007 422 1044 b 318 1201 422 1164 383 1201 b 215 1104 254 1201 215 1164 b 318 1007 215 1044 254 1007 z m 610 1007 b 715 1104 675 1007 715 1044 b 610 1201 715 1164 675 1201 b 507 1104 547 1201 507 1164 b 610 1007 507 1044 547 1007 z m 717 0 l 915 0 l 581 917 l 351 917 l 17 0 l 213 0 l 288 224 l 640 224 z m 335 365 l 424 626 l 463 763 l 465 763 l 507 624 l 593 365 z "},"À":{"ha":932,"x_min":0,"x_max":0,"o":"m 532 1014 l 454 1229 l 265 1229 l 389 1014 z m 717 0 l 915 0 l 581 917 l 351 917 l 17 0 l 213 0 l 288 224 l 640 224 z m 335 365 l 424 626 l 463 763 l 465 763 l 507 624 l 593 365 z "},"Ā":{"ha":932,"x_min":0,"x_max":0,"o":"m 718 1153 l 213 1153 l 213 1026 l 718 1026 z m 717 0 l 915 0 l 581 917 l 351 917 l 17 0 l 213 0 l 288 224 l 640 224 z m 335 365 l 424 626 l 463 763 l 465 763 l 507 624 l 593 365 z "},"Ą":{"ha":932,"x_min":0,"x_max":0,"o":"m 900 -171 b 831 -186 881 -183 853 -186 b 749 -121 781 -186 749 -162 b 915 0 749 -72 783 -31 l 581 917 l 351 917 l 17 0 l 213 0 l 288 224 l 640 224 l 714 6 b 611 -146 647 -29 611 -79 b 794 -299 611 -247 689 -299 b 928 -268 846 -299 894 -290 z m 335 365 l 424 626 l 463 763 l 465 763 l 507 624 l 593 365 z "},"Å":{"ha":932,"x_min":0,"x_max":0,"o":"m 717 0 l 915 0 l 589 881 b 663 1017 635 908 663 956 b 467 1192 663 1121 588 1192 b 271 1017 347 1192 271 1121 b 343 881 271 956 297 908 l 17 0 l 213 0 l 288 224 l 640 224 z m 467 1097 b 554 1013 518 1097 554 1063 b 467 928 554 963 518 928 b 379 1013 414 928 379 963 b 467 1097 379 1063 414 1097 z m 335 365 l 424 626 l 463 763 l 467 763 l 507 624 l 593 365 z "},"Ã":{"ha":932,"x_min":0,"x_max":0,"o":"m 374 1096 b 558 1011 429 1096 453 1011 b 732 1219 665 1011 725 1081 l 615 1219 b 557 1135 608 1164 592 1135 b 374 1219 503 1135 478 1219 b 199 1011 264 1219 206 1150 l 315 1011 b 374 1096 322 1067 339 1096 z m 717 0 l 915 0 l 581 917 l 351 917 l 17 0 l 213 0 l 288 224 l 640 224 z m 335 365 l 424 626 l 463 763 l 465 763 l 507 624 l 593 365 z "},"Æ":{"ha":1299,"x_min":0,"x_max":0,"o":"m 782 150 l 782 390 l 1121 390 l 1121 533 l 782 533 l 782 767 l 1226 767 l 1226 917 l 446 917 l 0 0 l 196 0 l 322 281 l 600 281 l 600 0 l 1246 0 l 1246 150 z m 385 418 l 544 771 l 600 771 l 600 418 z "},"B":{"ha":933,"x_min":0,"x_max":0,"o":"m 119 0 l 535 0 b 869 251 753 0 869 93 b 671 463 869 358 799 444 l 671 464 b 846 667 786 483 846 568 b 521 917 846 825 743 917 l 119 917 z m 306 532 l 306 768 l 494 768 b 647 650 597 768 647 729 b 494 532 647 571 597 532 z m 306 144 l 306 385 l 518 385 b 671 265 621 385 671 342 b 518 144 671 188 621 144 z "},"C":{"ha":949,"x_min":0,"x_max":0,"o":"m 904 253 l 728 306 b 517 143 699 196 626 143 b 272 458 363 143 272 256 b 521 774 272 663 368 774 b 718 619 626 774 688 731 l 892 693 b 513 931 840 853 700 931 b 74 458 244 931 74 753 b 515 -14 74 164 243 -14 b 904 253 701 -14 849 74 z "},"Ć":{"ha":949,"x_min":0,"x_max":0,"o":"m 501 1229 l 424 1014 l 567 1014 l 690 1229 z m 904 253 l 728 306 b 517 143 699 196 626 143 b 272 458 363 143 272 256 b 521 774 272 663 368 774 b 718 619 626 774 688 731 l 892 693 b 513 931 840 853 700 931 b 74 458 244 931 74 753 b 515 -14 74 164 243 -14 b 904 253 701 -14 849 74 z "},"Č":{"ha":949,"x_min":0,"x_max":0,"o":"m 756 1242 l 608 1242 l 506 1106 l 403 1242 l 256 1242 l 410 1010 l 601 1010 z m 904 253 l 728 306 b 517 143 699 196 626 143 b 272 458 363 143 272 256 b 521 774 272 663 368 774 b 718 619 626 774 688 731 l 892 693 b 513 931 840 853 700 931 b 74 458 244 931 74 753 b 515 -14 74 164 243 -14 b 904 253 701 -14 849 74 z "},"Ç":{"ha":949,"x_min":0,"x_max":0,"o":"m 904 253 l 728 306 b 517 143 699 196 626 143 b 272 458 363 143 272 256 b 521 774 272 663 368 774 b 718 619 626 774 688 731 l 892 693 b 513 931 840 853 700 931 b 74 458 244 931 74 753 b 463 -11 74 183 221 10 b 561 -115 540 -42 561 -71 b 485 -189 561 -161 529 -189 b 386 -147 443 -189 408 -171 l 336 -246 b 501 -299 372 -279 422 -299 b 686 -140 611 -299 686 -239 b 610 -6 686 -90 661 -42 b 904 253 750 19 858 104 z "},"D":{"ha":999,"x_min":0,"x_max":0,"o":"m 474 917 l 119 917 l 119 0 l 474 0 b 925 458 761 0 925 165 b 474 917 925 751 761 917 z m 464 153 l 311 153 l 311 764 l 464 764 b 726 458 639 764 726 656 b 464 153 726 261 639 153 z "},"Ð":{"ha":1028,"x_min":0,"x_max":0,"o":"m 503 917 l 149 917 l 149 525 l 25 525 l 25 394 l 149 394 l 149 0 l 503 0 b 954 458 790 0 954 165 b 503 917 954 751 790 917 z m 493 153 l 340 153 l 340 394 l 554 394 l 554 525 l 340 525 l 340 764 l 493 764 b 756 458 668 764 756 656 b 493 153 756 261 668 153 z "},"Ď":{"ha":999,"x_min":0,"x_max":0,"o":"m 547 1010 l 701 1242 l 554 1242 l 451 1106 l 349 1242 l 201 1242 l 356 1010 z m 474 917 l 119 917 l 119 0 l 474 0 b 925 458 761 0 925 165 b 474 917 925 751 761 917 z m 464 153 l 311 153 l 311 764 l 464 764 b 726 458 639 764 726 656 b 464 153 726 261 639 153 z "},"Đ":{"ha":1028,"x_min":0,"x_max":0,"o":"m 503 917 l 149 917 l 149 525 l 25 525 l 25 394 l 149 394 l 149 0 l 503 0 b 953 458 790 0 953 165 b 503 917 953 751 790 917 z m 492 153 l 340 153 l 340 394 l 554 394 l 554 525 l 340 525 l 340 764 l 492 764 b 756 458 667 764 756 656 b 492 153 756 261 667 153 z "},"E":{"ha":879,"x_min":0,"x_max":0,"o":"m 311 154 l 311 388 l 701 388 l 701 535 l 311 535 l 311 763 l 807 763 l 807 917 l 119 917 l 119 0 l 826 0 l 826 154 z "},"É":{"ha":879,"x_min":0,"x_max":0,"o":"m 639 1229 l 450 1229 l 372 1014 l 515 1014 z m 311 154 l 311 388 l 701 388 l 701 535 l 311 535 l 311 763 l 807 763 l 807 917 l 119 917 l 119 0 l 826 0 l 826 154 z "},"Ě":{"ha":879,"x_min":0,"x_max":0,"o":"m 550 1010 l 704 1242 l 557 1242 l 454 1106 l 351 1242 l 204 1242 l 358 1010 z m 311 154 l 311 388 l 701 388 l 701 535 l 311 535 l 311 763 l 807 763 l 807 917 l 119 917 l 119 0 l 826 0 l 826 154 z "},"Ê":{"ha":879,"x_min":0,"x_max":0,"o":"m 457 1144 l 560 1008 l 707 1008 l 553 1240 l 361 1240 l 207 1008 l 354 1008 z m 311 154 l 311 388 l 701 388 l 701 535 l 311 535 l 311 763 l 807 763 l 807 917 l 119 917 l 119 0 l 826 0 l 826 154 z "},"Ë":{"ha":879,"x_min":0,"x_max":0,"o":"m 310 1007 b 414 1104 375 1007 414 1044 b 310 1201 414 1164 375 1201 b 207 1104 246 1201 207 1164 b 310 1007 207 1044 246 1007 z m 601 1007 b 707 1104 667 1007 707 1044 b 601 1201 707 1164 667 1201 b 499 1104 539 1201 499 1164 b 601 1007 499 1044 539 1007 z m 311 154 l 311 388 l 701 388 l 701 535 l 311 535 l 311 763 l 807 763 l 807 917 l 119 917 l 119 0 l 826 0 l 826 154 z "},"Ė":{"ha":879,"x_min":0,"x_max":0,"o":"m 457 1019 b 569 1121 529 1019 569 1057 b 457 1222 569 1185 529 1222 b 346 1121 386 1222 346 1185 b 457 1019 346 1057 386 1019 z m 311 154 l 311 388 l 701 388 l 701 535 l 311 535 l 311 763 l 807 763 l 807 917 l 119 917 l 119 0 l 826 0 l 826 154 z "},"È":{"ha":879,"x_min":0,"x_max":0,"o":"m 553 1014 l 475 1229 l 286 1229 l 410 1014 z m 311 154 l 311 388 l 701 388 l 701 535 l 311 535 l 311 763 l 807 763 l 807 917 l 119 917 l 119 0 l 826 0 l 826 154 z "},"Ē":{"ha":879,"x_min":0,"x_max":0,"o":"m 710 1153 l 204 1153 l 204 1026 l 710 1026 z m 311 154 l 311 388 l 701 388 l 701 535 l 311 535 l 311 763 l 807 763 l 807 917 l 119 917 l 119 0 l 826 0 l 826 154 z "},"Ę":{"ha":879,"x_min":0,"x_max":0,"o":"m 811 -171 b 742 -186 792 -183 764 -186 b 661 -121 692 -186 661 -162 b 828 0 661 -72 696 -32 l 826 1 l 826 154 l 311 154 l 311 388 l 701 388 l 701 535 l 311 535 l 311 763 l 807 763 l 807 917 l 119 917 l 119 0 l 638 0 b 524 -151 565 -32 524 -81 b 706 -299 524 -247 600 -299 b 839 -268 757 -299 806 -290 z "},"F":{"ha":850,"x_min":0,"x_max":0,"o":"m 806 763 l 806 917 l 119 917 l 119 0 l 311 0 l 311 375 l 701 375 l 701 531 l 311 531 l 311 763 z "},"G":{"ha":1004,"x_min":0,"x_max":0,"o":"m 481 485 l 481 343 l 749 343 l 749 322 b 529 140 749 200 653 140 b 272 458 360 140 272 250 b 525 774 272 663 368 774 b 733 629 626 774 704 726 l 910 706 b 519 931 838 861 718 931 b 74 457 247 931 74 751 b 499 -14 74 158 247 -14 b 769 110 628 -14 717 32 l 774 0 l 914 0 l 914 485 z "},"Ğ":{"ha":1004,"x_min":0,"x_max":0,"o":"m 513 1004 b 736 1222 650 1004 736 1089 l 607 1222 b 513 1118 607 1164 569 1118 b 418 1222 456 1118 418 1164 l 289 1222 b 513 1004 289 1089 375 1004 z m 481 485 l 481 343 l 749 343 l 749 322 b 529 140 749 200 653 140 b 272 458 360 140 272 250 b 525 774 272 663 368 774 b 733 629 626 774 704 726 l 910 706 b 519 931 838 861 718 931 b 74 457 247 931 74 751 b 499 -14 74 158 247 -14 b 769 110 628 -14 717 32 l 774 0 l 914 0 l 914 485 z "},"H":{"ha":1026,"x_min":0,"x_max":0,"o":"m 715 917 l 715 540 l 311 540 l 311 917 l 119 917 l 119 0 l 311 0 l 311 386 l 715 386 l 715 0 l 907 0 l 907 917 z "},"I":{"ha":431,"x_min":0,"x_max":0,"o":"m 311 917 l 119 917 l 119 0 l 311 0 z "},"Ĳ":{"ha":1265,"x_min":0,"x_max":0,"o":"m 311 917 l 119 917 l 119 0 l 311 0 z m 1160 917 l 968 917 l 968 364 b 806 143 968 217 926 143 b 674 374 690 143 651 211 l 486 340 b 800 -14 447 131 551 -14 b 1160 338 1028 -14 1160 117 z "},"Í":{"ha":431,"x_min":0,"x_max":0,"o":"m 208 1229 l 131 1014 l 274 1014 l 397 1229 z m 311 917 l 119 917 l 119 0 l 311 0 z "},"Î":{"ha":431,"x_min":0,"x_max":0,"o":"m 465 1008 l 311 1240 l 119 1240 l -35 1008 l 113 1008 l 215 1144 l 318 1008 z m 311 917 l 119 917 l 119 0 l 311 0 z "},"Ï":{"ha":431,"x_min":0,"x_max":0,"o":"m 81 1201 b -19 1104 19 1201 -19 1164 b 81 1007 -19 1044 19 1007 b 183 1104 144 1007 183 1044 b 81 1201 183 1164 144 1201 z m 347 1201 b 247 1104 286 1201 247 1164 b 347 1007 247 1044 286 1007 b 450 1104 411 1007 450 1044 b 347 1201 450 1164 411 1201 z m 311 917 l 119 917 l 119 0 l 311 0 z "},"İ":{"ha":431,"x_min":0,"x_max":0,"o":"m 215 1222 b 104 1121 144 1222 104 1185 b 215 1019 104 1057 144 1019 b 328 1121 288 1019 328 1057 b 215 1222 328 1185 288 1222 z m 311 917 l 119 917 l 119 0 l 311 0 z "},"Ì":{"ha":431,"x_min":0,"x_max":0,"o":"m 204 1229 l 15 1229 l 139 1014 l 282 1014 z m 311 917 l 119 917 l 119 0 l 311 0 z "},"Ī":{"ha":431,"x_min":0,"x_max":0,"o":"m 394 1153 l 35 1153 l 35 1026 l 394 1026 z m 311 917 l 119 917 l 119 0 l 311 0 z "},"Į":{"ha":431,"x_min":0,"x_max":0,"o":"m 308 -168 b 236 -185 289 -181 265 -185 b 160 -118 186 -185 160 -161 b 311 0 160 -76 192 -37 l 311 917 l 119 917 l 119 0 l 125 0 b 24 -151 60 -35 24 -87 b 203 -299 24 -247 99 -299 b 339 -265 261 -299 303 -289 z "},"J":{"ha":835,"x_min":0,"x_max":0,"o":"m 729 917 l 538 917 l 538 364 b 375 143 538 217 496 143 b 243 374 260 143 221 211 l 56 340 b 369 -14 17 131 121 -14 b 729 338 597 -14 729 117 z "},"K":{"ha":943,"x_min":0,"x_max":0,"o":"m 701 0 l 921 0 l 581 543 l 910 917 l 688 917 l 311 482 l 311 917 l 119 917 l 119 0 l 311 0 l 311 271 l 442 419 z "},"L":{"ha":835,"x_min":0,"x_max":0,"o":"m 311 154 l 311 917 l 119 917 l 119 0 l 794 0 l 794 154 z "},"Ĺ":{"ha":835,"x_min":0,"x_max":0,"o":"m 397 1229 l 208 1229 l 131 1014 l 274 1014 z m 311 154 l 311 917 l 119 917 l 119 0 l 794 0 l 794 154 z "},"Ľ":{"ha":835,"x_min":0,"x_max":0,"o":"m 628 974 l 464 974 l 432 663 l 556 663 z m 311 154 l 311 917 l 119 917 l 119 0 l 794 0 l 794 154 z "},"Ŀ":{"ha":881,"x_min":0,"x_max":0,"o":"m 311 917 l 119 917 l 119 0 l 794 0 l 794 154 l 311 154 z m 735 600 b 614 488 660 600 614 557 b 735 375 614 418 660 375 b 856 488 808 375 856 418 b 735 600 856 557 808 600 z "},"Ł":{"ha":886,"x_min":0,"x_max":0,"o":"m 364 154 l 364 418 l 604 539 l 604 692 l 364 571 l 364 917 l 172 917 l 172 474 l 21 399 l 21 246 l 172 322 l 172 0 l 847 0 l 847 154 z "},"M":{"ha":1236,"x_min":0,"x_max":0,"o":"m 1117 917 l 847 917 l 683 415 l 624 210 l 621 210 l 563 417 l 397 917 l 119 917 l 119 0 l 293 0 l 293 478 l 283 746 l 286 746 l 539 0 l 696 0 l 950 746 l 953 746 l 944 478 l 944 0 l 1117 0 z "},"N":{"ha":1026,"x_min":0,"x_max":0,"o":"m 907 917 l 735 917 l 735 386 l 740 224 l 738 224 l 658 379 l 338 917 l 119 917 l 119 0 l 292 0 l 292 531 l 286 693 l 288 693 l 367 539 l 688 0 l 907 0 z "},"Ń":{"ha":1026,"x_min":0,"x_max":0,"o":"m 510 1229 l 432 1014 l 575 1014 l 699 1229 z m 907 917 l 735 917 l 735 386 l 740 224 l 738 224 l 658 379 l 338 917 l 119 917 l 119 0 l 292 0 l 292 531 l 286 693 l 288 693 l 367 539 l 688 0 l 907 0 z "},"Ň":{"ha":1026,"x_min":0,"x_max":0,"o":"m 763 1242 l 615 1242 l 513 1106 l 410 1242 l 263 1242 l 417 1010 l 608 1010 z m 907 917 l 735 917 l 735 386 l 740 224 l 738 224 l 658 379 l 338 917 l 119 917 l 119 0 l 292 0 l 292 531 l 286 693 l 288 693 l 367 539 l 688 0 l 907 0 z "},"Ñ":{"ha":1026,"x_min":0,"x_max":0,"o":"m 782 1219 l 665 1219 b 607 1135 658 1164 642 1135 b 424 1219 553 1135 528 1219 b 249 1011 314 1219 256 1150 l 365 1011 b 424 1096 372 1067 389 1096 b 608 1011 479 1096 503 1011 b 782 1219 715 1011 775 1081 z m 907 917 l 735 917 l 735 386 l 740 224 l 738 224 l 658 379 l 338 917 l 119 917 l 119 0 l 292 0 l 292 531 l 286 693 l 288 693 l 367 539 l 688 0 l 907 0 z "},"O":{"ha":1029,"x_min":0,"x_max":0,"o":"m 515 931 b 74 458 243 931 74 753 b 515 -14 74 164 243 -14 b 956 458 788 -14 956 164 b 515 931 956 753 788 931 z m 515 774 b 757 458 668 774 757 663 b 515 143 757 254 668 143 b 272 458 361 143 272 254 b 515 774 272 663 361 774 z "},"Ó":{"ha":1029,"x_min":0,"x_max":0,"o":"m 508 1229 l 431 1014 l 574 1014 l 697 1229 z m 515 931 b 74 458 243 931 74 753 b 515 -14 74 164 243 -14 b 956 458 788 -14 956 164 b 515 931 956 753 788 931 z m 515 774 b 757 458 668 774 757 663 b 515 143 757 254 668 143 b 272 458 361 143 272 254 b 515 774 272 663 361 774 z "},"Ô":{"ha":1029,"x_min":0,"x_max":0,"o":"m 765 1008 l 611 1240 l 419 1240 l 265 1008 l 413 1008 l 515 1144 l 618 1008 z m 515 931 b 74 458 243 931 74 753 b 515 -14 74 164 243 -14 b 956 458 788 -14 956 164 b 515 931 956 753 788 931 z m 515 774 b 757 458 668 774 757 663 b 515 143 757 254 668 143 b 272 458 361 143 272 254 b 515 774 272 663 361 774 z "},"Ö":{"ha":1029,"x_min":0,"x_max":0,"o":"m 368 1201 b 265 1104 304 1201 265 1164 b 368 1007 265 1044 304 1007 b 472 1104 433 1007 472 1044 b 368 1201 472 1164 433 1201 z m 660 1201 b 557 1104 597 1201 557 1164 b 660 1007 557 1044 597 1007 b 765 1104 725 1007 765 1044 b 660 1201 765 1164 725 1201 z m 515 931 b 74 458 243 931 74 753 b 515 -14 74 164 243 -14 b 956 458 788 -14 956 164 b 515 931 956 753 788 931 z m 515 774 b 757 458 668 774 757 663 b 515 143 757 254 668 143 b 272 458 361 143 272 254 b 515 774 272 663 361 774 z "},"Ò":{"ha":1029,"x_min":0,"x_max":0,"o":"m 504 1229 l 315 1229 l 439 1014 l 582 1014 z m 515 931 b 74 458 243 931 74 753 b 515 -14 74 164 243 -14 b 956 458 788 -14 956 164 b 515 931 956 753 788 931 z m 515 774 b 757 458 668 774 757 663 b 515 143 757 254 668 143 b 272 458 361 143 272 254 b 515 774 272 663 361 774 z "},"Ő":{"ha":1029,"x_min":0,"x_max":0,"o":"m 374 1229 l 297 1014 l 439 1014 l 564 1229 z m 661 1229 l 585 1014 l 726 1014 l 851 1229 z m 515 931 b 74 458 243 931 74 753 b 515 -14 74 164 243 -14 b 956 458 788 -14 956 164 b 515 931 956 753 788 931 z m 515 774 b 757 458 668 774 757 663 b 515 143 757 254 668 143 b 272 458 361 143 272 254 b 515 774 272 663 361 774 z "},"Ō":{"ha":1029,"x_min":0,"x_max":0,"o":"m 768 1153 l 263 1153 l 263 1026 l 768 1026 z m 515 931 b 74 458 243 931 74 753 b 515 -14 74 164 243 -14 b 956 458 788 -14 956 164 b 515 931 956 753 788 931 z m 515 774 b 757 458 668 774 757 663 b 515 143 757 254 668 143 b 272 458 361 143 272 254 b 515 774 272 663 361 774 z "},"Ø":{"ha":1029,"x_min":0,"x_max":0,"o":"m 831 811 l 928 947 l 817 947 l 760 868 b 515 931 693 908 610 931 b 74 458 243 931 74 753 b 203 100 74 304 121 182 l 101 -43 l 213 -43 l 276 46 b 515 -14 342 7 422 -14 b 956 458 788 -14 956 164 b 831 811 956 610 911 731 z m 515 774 b 656 731 571 774 618 758 l 318 250 b 272 458 288 301 272 372 b 515 774 272 663 361 774 z m 515 143 b 382 181 463 143 418 156 l 717 657 b 757 458 743 606 757 539 b 515 143 757 254 668 143 z "},"Õ":{"ha":1029,"x_min":0,"x_max":0,"o":"m 781 1219 l 664 1219 b 606 1135 657 1164 640 1135 b 422 1219 551 1135 526 1219 b 247 1011 313 1219 254 1150 l 364 1011 b 422 1096 371 1067 388 1096 b 607 1011 478 1096 501 1011 b 781 1219 714 1011 774 1081 z m 515 931 b 74 458 243 931 74 753 b 515 -14 74 164 243 -14 b 956 458 788 -14 956 164 b 515 931 956 753 788 931 z m 515 774 b 757 458 668 774 757 663 b 515 143 757 254 668 143 b 272 458 361 143 272 254 b 515 774 272 663 361 774 z "},"Œ":{"ha":1472,"x_min":0,"x_max":0,"o":"m 929 154 l 929 388 l 1294 388 l 1294 535 l 929 535 l 929 763 l 1400 763 l 1400 917 l 790 917 l 790 801 b 504 931 724 882 626 931 b 74 458 238 931 74 753 b 501 -14 74 164 239 -14 b 790 118 625 -14 722 36 l 790 0 l 1419 0 l 1419 154 z m 511 143 b 269 458 354 143 269 254 b 511 774 269 663 354 774 b 743 458 654 774 743 663 b 511 143 743 254 654 143 z "},"P":{"ha":897,"x_min":0,"x_max":0,"o":"m 504 917 l 119 917 l 119 0 l 311 0 l 311 333 l 504 333 b 842 622 717 333 842 440 b 504 917 842 810 717 917 z m 475 482 l 311 482 l 311 764 l 475 764 b 647 624 594 764 647 717 b 475 482 647 531 594 482 z "},"Þ":{"ha":906,"x_min":0,"x_max":0,"o":"m 489 768 l 311 768 l 311 917 l 119 917 l 119 0 l 311 0 l 311 168 l 489 168 b 843 468 719 168 844 274 b 489 768 844 664 719 768 z m 475 319 l 311 319 l 311 617 l 475 617 b 649 468 590 617 649 569 b 475 319 649 367 590 319 z "},"Q":{"ha":1029,"x_min":0,"x_max":0,"o":"m 733 -119 b 579 -10 650 -119 589 -100 b 956 458 814 17 956 189 b 515 931 956 753 788 931 b 74 458 243 931 74 753 b 446 -10 74 190 214 18 b 726 -279 442 -189 553 -279 b 951 -214 818 -279 904 -254 l 901 -67 b 733 -119 865 -100 806 -119 z m 272 458 b 515 774 272 663 361 774 b 757 458 668 774 757 663 b 515 143 757 254 668 143 b 272 458 361 143 272 254 z "},"R":{"ha":944,"x_min":0,"x_max":0,"o":"m 696 0 l 911 0 l 669 372 b 857 633 789 411 857 501 b 524 917 857 814 732 917 l 119 917 l 119 0 l 308 0 l 308 351 l 481 351 z m 308 764 l 499 764 b 661 631 610 764 661 722 b 499 497 661 539 610 497 l 308 497 z "},"Ŕ":{"ha":944,"x_min":0,"x_max":0,"o":"m 636 1229 l 447 1229 l 369 1014 l 513 1014 z m 696 0 l 911 0 l 669 372 b 857 633 789 411 857 501 b 524 917 857 814 732 917 l 119 917 l 119 0 l 308 0 l 308 351 l 481 351 z m 308 764 l 499 764 b 661 631 610 764 661 722 b 499 497 661 539 610 497 l 308 497 z "},"Ř":{"ha":944,"x_min":0,"x_max":0,"o":"m 546 1010 l 700 1242 l 553 1242 l 450 1106 l 347 1242 l 200 1242 l 354 1010 z m 696 0 l 911 0 l 669 372 b 857 633 789 411 857 501 b 524 917 857 814 732 917 l 119 917 l 119 0 l 308 0 l 308 351 l 481 351 z m 308 764 l 499 764 b 661 631 610 764 661 722 b 499 497 661 539 610 497 l 308 497 z "},"S":{"ha":893,"x_min":0,"x_max":0,"o":"m 454 931 b 79 642 217 931 79 804 b 432 360 79 489 176 411 b 632 250 583 329 632 300 b 450 142 632 181 568 142 b 167 293 326 142 239 174 l 53 157 b 457 -14 131 46 249 -14 b 833 261 676 -14 833 89 b 493 536 833 414 740 490 b 282 660 332 565 282 599 b 456 772 282 725 340 772 b 703 625 579 772 656 724 l 835 754 b 454 931 742 876 625 931 z "},"Ś":{"ha":893,"x_min":0,"x_max":0,"o":"m 449 1229 l 371 1014 l 514 1014 l 638 1229 z m 454 931 b 79 642 217 931 79 804 b 432 360 79 489 176 411 b 632 250 583 329 632 300 b 450 142 632 181 568 142 b 167 293 326 142 239 174 l 53 157 b 457 -14 131 46 249 -14 b 833 261 676 -14 833 89 b 493 536 833 414 740 490 b 282 660 332 565 282 599 b 456 772 282 725 340 772 b 703 625 579 772 656 724 l 835 754 b 454 931 742 876 625 931 z "},"Š":{"ha":893,"x_min":0,"x_max":0,"o":"m 703 1242 l 556 1242 l 453 1106 l 350 1242 l 203 1242 l 357 1010 l 549 1010 z m 454 931 b 79 642 217 931 79 804 b 432 360 79 489 176 411 b 632 250 583 329 632 300 b 450 142 632 181 568 142 b 167 293 326 142 239 174 l 53 157 b 457 -14 131 46 249 -14 b 833 261 676 -14 833 89 b 493 536 833 414 740 490 b 282 660 332 565 282 599 b 456 772 282 725 340 772 b 703 625 579 772 656 724 l 835 754 b 454 931 742 876 625 931 z "},"ẞ":{"ha":985,"x_min":0,"x_max":0,"o":"m 664 508 l 889 765 l 889 917 l 472 917 b 119 594 260 917 119 792 l 119 0 l 311 0 l 311 572 b 499 764 311 689 389 764 l 696 764 l 478 508 l 478 389 l 594 389 b 758 264 699 389 758 343 b 615 139 758 189 701 139 b 460 194 549 139 494 160 l 401 76 b 650 -7 443 28 525 -7 b 944 260 819 -7 944 90 b 664 508 944 425 826 504 z "},"T":{"ha":882,"x_min":0,"x_max":0,"o":"m 844 917 l 38 917 l 38 763 l 346 763 l 346 0 l 538 0 l 538 763 l 844 763 z "},"Ť":{"ha":882,"x_min":0,"x_max":0,"o":"m 533 1010 l 688 1242 l 540 1242 l 438 1106 l 335 1242 l 188 1242 l 342 1010 z m 844 917 l 38 917 l 38 763 l 346 763 l 346 0 l 538 0 l 538 763 l 844 763 z "},"U":{"ha":993,"x_min":0,"x_max":0,"o":"m 889 917 l 696 917 l 696 369 b 497 143 696 215 632 143 b 297 369 363 143 297 215 l 297 917 l 106 917 l 106 361 b 497 -14 106 111 242 -14 b 889 361 753 -14 889 111 z "},"Ú":{"ha":993,"x_min":0,"x_max":0,"o":"m 490 1229 l 413 1014 l 556 1014 l 679 1229 z m 889 917 l 696 917 l 696 369 b 497 143 696 215 632 143 b 297 369 363 143 297 215 l 297 917 l 106 917 l 106 361 b 497 -14 106 111 242 -14 b 889 361 753 -14 889 111 z "},"Û":{"ha":993,"x_min":0,"x_max":0,"o":"m 747 1008 l 593 1240 l 401 1240 l 247 1008 l 394 1008 l 497 1144 l 600 1008 z m 889 917 l 696 917 l 696 369 b 497 143 696 215 632 143 b 297 369 363 143 297 215 l 297 917 l 106 917 l 106 361 b 497 -14 106 111 242 -14 b 889 361 753 -14 889 111 z "},"Ü":{"ha":993,"x_min":0,"x_max":0,"o":"m 350 1201 b 247 1104 286 1201 247 1164 b 350 1007 247 1044 286 1007 b 454 1104 415 1007 454 1044 b 350 1201 454 1164 415 1201 z m 642 1201 b 539 1104 579 1201 539 1164 b 642 1007 539 1044 579 1007 b 747 1104 707 1007 747 1044 b 642 1201 747 1164 707 1201 z m 889 917 l 696 917 l 696 369 b 497 143 696 215 632 143 b 297 369 363 143 297 215 l 297 917 l 106 917 l 106 361 b 497 -14 106 111 242 -14 b 889 361 753 -14 889 111 z "},"Ù":{"ha":993,"x_min":0,"x_max":0,"o":"m 486 1229 l 297 1229 l 421 1014 l 564 1014 z m 889 917 l 696 917 l 696 369 b 497 143 696 215 632 143 b 297 369 363 143 297 215 l 297 917 l 106 917 l 106 361 b 497 -14 106 111 242 -14 b 889 361 753 -14 889 111 z "},"Ű":{"ha":993,"x_min":0,"x_max":0,"o":"m 347 1232 l 271 1015 l 413 1015 l 538 1232 z m 631 1229 l 553 1014 l 694 1014 l 819 1229 z m 889 917 l 696 917 l 696 369 b 497 143 696 215 632 143 b 297 369 363 143 297 215 l 297 917 l 106 917 l 106 361 b 497 -14 106 111 242 -14 b 889 361 753 -14 889 111 z "},"Ū":{"ha":993,"x_min":0,"x_max":0,"o":"m 750 1153 l 244 1153 l 244 1026 l 750 1026 z m 889 917 l 696 917 l 696 369 b 497 143 696 215 632 143 b 297 369 363 143 297 215 l 297 917 l 106 917 l 106 361 b 497 -14 106 111 242 -14 b 889 361 753 -14 889 111 z "},"Ų":{"ha":993,"x_min":0,"x_max":0,"o":"m 696 917 l 696 369 b 497 143 696 215 632 143 b 297 369 363 143 297 215 l 297 917 l 106 917 l 106 361 b 442 -12 106 131 222 6 b 365 -150 393 -46 365 -90 b 549 -299 365 -244 443 -299 b 681 -269 600 -299 647 -290 l 653 -171 b 583 -186 633 -183 607 -186 b 503 -119 535 -186 503 -161 b 618 -3 503 -81 533 -42 b 889 361 796 32 889 154 l 889 917 z "},"Ů":{"ha":993,"x_min":0,"x_max":0,"o":"m 497 1247 b 315 1081 386 1247 315 1182 b 497 913 315 978 386 913 b 679 1081 610 913 679 978 b 497 1247 679 1182 610 1247 z m 497 1160 b 581 1081 546 1160 581 1128 b 497 1000 581 1033 546 1000 b 415 1081 449 1000 415 1033 b 497 1160 415 1128 449 1160 z m 889 917 l 696 917 l 696 369 b 497 143 696 215 632 143 b 297 369 363 143 297 215 l 297 917 l 106 917 l 106 361 b 497 -14 106 111 242 -14 b 889 361 753 -14 889 111 z "},"V":{"ha":931,"x_min":0,"x_max":0,"o":"m 911 917 l 714 917 l 519 332 l 468 153 l 415 333 l 222 917 l 19 917 l 354 0 l 578 0 z "},"W":{"ha":1367,"x_min":0,"x_max":0,"o":"m 640 500 l 683 717 l 686 717 l 729 500 l 857 0 l 1072 0 l 1339 917 l 1142 917 l 964 151 l 778 917 l 594 917 l 411 151 l 233 917 l 26 917 l 293 0 l 514 0 z "},"X":{"ha":889,"x_min":0,"x_max":0,"o":"m 867 0 l 556 469 l 850 917 l 643 917 l 457 597 l 271 917 l 44 917 l 338 463 l 22 0 l 242 0 l 438 332 l 638 0 z "},"Y":{"ha":869,"x_min":0,"x_max":0,"o":"m 856 917 l 653 917 l 506 643 l 435 499 l 365 643 l 218 917 l 14 917 l 339 343 l 339 0 l 531 0 l 531 343 z "},"Ý":{"ha":869,"x_min":0,"x_max":0,"o":"m 428 1229 l 350 1014 l 493 1014 l 617 1229 z m 856 917 l 653 917 l 506 643 l 435 499 l 365 643 l 218 917 l 14 917 l 339 343 l 339 0 l 531 0 l 531 343 z "},"Ÿ":{"ha":869,"x_min":0,"x_max":0,"o":"m 288 1201 b 185 1104 224 1201 185 1164 b 288 1007 185 1044 224 1007 b 392 1104 353 1007 392 1044 b 288 1201 392 1164 353 1201 z m 579 1201 b 476 1104 517 1201 476 1164 b 579 1007 476 1044 517 1007 b 685 1104 644 1007 685 1044 b 579 1201 685 1164 644 1201 z m 856 917 l 653 917 l 506 643 l 435 499 l 365 643 l 218 917 l 14 917 l 339 343 l 339 0 l 531 0 l 531 343 z "},"Z":{"ha":879,"x_min":0,"x_max":0,"o":"m 272 153 l 807 772 l 807 917 l 72 917 l 72 764 l 596 764 l 61 144 l 61 0 l 824 0 l 824 153 z "},"Ź":{"ha":879,"x_min":0,"x_max":0,"o":"m 619 1229 l 431 1229 l 353 1014 l 496 1014 z m 272 153 l 807 772 l 807 917 l 72 917 l 72 764 l 596 764 l 61 144 l 61 0 l 824 0 l 824 153 z "},"Ž":{"ha":879,"x_min":0,"x_max":0,"o":"m 529 1010 l 683 1242 l 536 1242 l 433 1106 l 331 1242 l 183 1242 l 338 1010 z m 272 153 l 807 772 l 807 917 l 72 917 l 72 764 l 596 764 l 61 144 l 61 0 l 824 0 l 824 153 z "},"Ż":{"ha":879,"x_min":0,"x_max":0,"o":"m 438 1019 b 550 1121 510 1019 550 1057 b 438 1222 550 1185 510 1222 b 326 1121 367 1222 326 1185 b 438 1019 326 1057 367 1019 z m 272 153 l 807 772 l 807 917 l 72 917 l 72 764 l 596 764 l 61 144 l 61 0 l 824 0 l 824 153 z "},"Ģ":{"ha":1004,"x_min":0,"x_max":0,"o":"m 481 485 l 481 343 l 749 343 l 749 322 b 529 140 749 200 653 140 b 272 458 360 140 272 250 b 525 774 272 663 368 774 b 733 629 626 774 704 726 l 910 706 b 519 931 838 861 718 931 b 74 457 247 931 74 751 b 499 -14 74 158 247 -14 b 769 110 628 -14 717 32 l 774 0 l 914 0 l 914 485 z m 407 -332 l 536 -332 l 632 -92 l 457 -92 z "},"Ķ":{"ha":943,"x_min":0,"x_max":0,"o":"m 581 543 l 910 917 l 688 917 l 311 482 l 311 917 l 119 917 l 119 0 l 311 0 l 311 271 l 442 419 l 701 0 l 921 0 z m 368 -332 l 497 -332 l 593 -92 l 418 -92 z "},"Ļ":{"ha":835,"x_min":0,"x_max":0,"o":"m 311 154 l 311 917 l 119 917 l 119 0 l 794 0 l 794 154 z m 339 -332 l 468 -332 l 564 -92 l 389 -92 z "},"Ņ":{"ha":1026,"x_min":0,"x_max":0,"o":"m 907 917 l 735 917 l 735 386 l 740 224 l 738 224 l 658 379 l 338 917 l 119 917 l 119 0 l 292 0 l 292 531 l 286 693 l 288 693 l 367 539 l 688 0 l 907 0 z m 624 -92 l 449 -92 l 399 -332 l 528 -332 z "},"Ŗ":{"ha":944,"x_min":0,"x_max":0,"o":"m 669 372 b 857 633 789 411 857 501 b 524 917 857 814 732 917 l 119 917 l 119 0 l 308 0 l 308 351 l 481 351 l 696 0 l 911 0 z m 308 764 l 499 764 b 661 631 610 764 661 722 b 499 497 661 539 610 497 l 308 497 z m 365 -332 l 494 -332 l 590 -92 l 415 -92 z "},"Ş":{"ha":893,"x_min":0,"x_max":0,"o":"m 493 536 b 282 660 332 565 282 599 b 456 772 282 725 340 772 b 703 625 579 772 656 724 l 835 754 b 454 931 742 876 625 931 b 79 642 217 931 79 804 b 432 360 79 489 176 411 b 632 250 583 329 632 300 b 450 142 632 181 568 142 b 167 293 326 142 239 174 l 53 157 b 408 -12 124 54 229 -4 b 504 -115 483 -43 504 -72 b 428 -189 504 -161 472 -189 b 329 -147 386 -189 351 -171 l 279 -246 b 444 -299 315 -279 365 -299 b 629 -140 554 -299 629 -239 b 554 -7 629 -90 604 -43 b 833 261 721 19 833 115 b 493 536 833 414 740 490 z "},"Ţ":{"ha":882,"x_min":0,"x_max":0,"o":"m 844 763 l 844 917 l 38 917 l 38 763 l 346 763 l 346 0 l 383 0 b 490 -111 457 -33 490 -60 b 413 -186 490 -160 456 -186 b 318 -144 369 -186 340 -169 l 263 -244 b 431 -299 300 -278 351 -299 b 617 -137 539 -299 617 -239 b 538 1 617 -79 592 -33 l 538 763 z "},"Ș":{"ha":893,"x_min":0,"x_max":0,"o":"m 454 931 b 79 642 217 931 79 804 b 432 360 79 489 176 411 b 632 250 583 329 632 300 b 450 142 632 181 568 142 b 167 293 326 142 239 174 l 53 157 b 457 -14 131 46 249 -14 b 833 261 676 -14 833 89 b 493 536 833 414 740 490 b 282 660 332 565 282 599 b 456 772 282 725 340 772 b 703 625 579 772 656 724 l 835 754 b 454 931 742 876 625 931 z m 572 -92 l 397 -92 l 347 -332 l 476 -332 z "},"Ț":{"ha":882,"x_min":0,"x_max":0,"o":"m 844 917 l 38 917 l 38 763 l 346 763 l 346 0 l 538 0 l 538 763 l 844 763 z m 306 -332 l 435 -332 l 531 -92 l 356 -92 z "},"a":{"ha":797,"x_min":0,"x_max":0,"o":"m 735 115 b 683 168 699 115 683 132 l 683 453 b 368 708 683 625 561 708 b 65 515 199 708 94 633 l 217 451 b 376 569 238 539 296 569 b 494 449 451 569 494 522 l 494 415 l 328 383 b 57 164 142 349 57 272 b 272 -14 57 47 140 -14 b 518 90 389 -14 476 22 b 678 -14 538 15 594 -14 b 768 6 713 -14 743 -7 l 782 121 b 735 115 768 117 751 115 z m 332 115 b 253 183 282 115 253 139 b 346 265 253 229 285 251 l 494 299 l 494 226 b 332 115 494 153 404 115 z "},"á":{"ha":797,"x_min":0,"x_max":0,"o":"m 571 1031 l 388 1031 l 290 794 l 432 794 z m 735 115 b 683 168 699 115 683 132 l 683 453 b 368 708 683 625 561 708 b 65 515 199 708 94 633 l 217 451 b 376 569 238 539 296 569 b 494 449 451 569 494 522 l 494 415 l 328 383 b 57 164 142 349 57 272 b 272 -14 57 47 140 -14 b 518 90 389 -14 476 22 b 678 -14 538 15 594 -14 b 768 6 713 -14 743 -7 l 782 121 b 735 115 768 117 751 115 z m 332 115 b 253 183 282 115 253 139 b 346 265 253 229 285 251 l 494 299 l 494 226 b 332 115 494 153 404 115 z "},"ă":{"ha":797,"x_min":0,"x_max":0,"o":"m 383 782 b 607 1000 521 782 607 867 l 478 1000 b 383 896 478 942 440 896 b 289 1000 326 896 289 942 l 160 1000 b 383 782 160 867 246 782 z m 735 115 b 683 168 699 115 683 132 l 683 453 b 368 708 683 625 561 708 b 65 515 199 708 94 633 l 217 451 b 376 569 238 539 296 569 b 494 449 451 569 494 522 l 494 415 l 328 383 b 57 164 142 349 57 272 b 272 -14 57 47 140 -14 b 518 90 389 -14 476 22 b 678 -14 538 15 594 -14 b 768 6 713 -14 743 -7 l 782 121 b 735 115 768 117 751 115 z m 332 115 b 253 183 282 115 253 139 b 346 265 253 229 285 251 l 494 299 l 494 226 b 332 115 494 153 404 115 z "},"â":{"ha":797,"x_min":0,"x_max":0,"o":"m 383 917 l 486 785 l 632 785 l 479 1021 l 288 1021 l 135 785 l 281 785 z m 735 115 b 683 168 699 115 683 132 l 683 453 b 368 708 683 625 561 708 b 65 515 199 708 94 633 l 217 451 b 376 569 238 539 296 569 b 494 449 451 569 494 522 l 494 415 l 328 383 b 57 164 142 349 57 272 b 272 -14 57 47 140 -14 b 518 90 389 -14 476 22 b 678 -14 538 15 594 -14 b 768 6 713 -14 743 -7 l 782 121 b 735 115 768 117 751 115 z m 332 115 b 253 183 282 115 253 139 b 346 265 253 229 285 251 l 494 299 l 494 226 b 332 115 494 153 404 115 z "},"ä":{"ha":797,"x_min":0,"x_max":0,"o":"m 236 785 b 340 882 301 785 340 822 b 236 979 340 942 301 979 b 133 882 172 979 133 942 b 236 785 133 822 172 785 z m 528 785 b 633 882 593 785 633 822 b 528 979 633 942 593 979 b 425 882 465 979 425 942 b 528 785 425 822 465 785 z m 735 115 b 683 168 699 115 683 132 l 683 453 b 368 708 683 625 561 708 b 65 515 199 708 94 633 l 217 451 b 376 569 238 539 296 569 b 494 449 451 569 494 522 l 494 415 l 328 383 b 57 164 142 349 57 272 b 272 -14 57 47 140 -14 b 518 90 389 -14 476 22 b 678 -14 538 15 594 -14 b 768 6 713 -14 743 -7 l 782 121 b 735 115 768 117 751 115 z m 332 115 b 253 183 282 115 253 139 b 346 265 253 229 285 251 l 494 299 l 494 226 b 332 115 494 153 404 115 z "},"à":{"ha":797,"x_min":0,"x_max":0,"o":"m 464 794 l 367 1031 l 183 1031 l 322 794 z m 735 115 b 683 168 699 115 683 132 l 683 453 b 368 708 683 625 561 708 b 65 515 199 708 94 633 l 217 451 b 376 569 238 539 296 569 b 494 449 451 569 494 522 l 494 415 l 328 383 b 57 164 142 349 57 272 b 272 -14 57 47 140 -14 b 518 90 389 -14 476 22 b 678 -14 538 15 594 -14 b 768 6 713 -14 743 -7 l 782 121 b 735 115 768 117 751 115 z m 332 115 b 253 183 282 115 253 139 b 346 265 253 229 285 251 l 494 299 l 494 226 b 332 115 494 153 404 115 z "},"ā":{"ha":797,"x_min":0,"x_max":0,"o":"m 636 931 l 131 931 l 131 804 l 636 804 z m 735 115 b 683 168 699 115 683 132 l 683 453 b 368 708 683 625 561 708 b 65 515 199 708 94 633 l 217 451 b 376 569 238 539 296 569 b 494 449 451 569 494 522 l 494 415 l 328 383 b 57 164 142 349 57 272 b 272 -14 57 47 140 -14 b 518 90 389 -14 476 22 b 678 -14 538 15 594 -14 b 768 6 713 -14 743 -7 l 782 121 b 735 115 768 117 751 115 z m 332 115 b 253 183 282 115 253 139 b 346 265 253 229 285 251 l 494 299 l 494 226 b 332 115 494 153 404 115 z "},"ą":{"ha":797,"x_min":0,"x_max":0,"o":"m 682 -186 b 607 -119 633 -186 607 -161 b 768 6 607 -65 649 -24 l 782 121 b 735 115 768 117 751 115 b 683 168 699 115 683 132 l 683 453 b 368 708 683 625 561 708 b 65 515 199 708 94 633 l 217 451 b 376 569 238 539 296 569 b 494 449 451 569 494 522 l 494 415 l 328 383 b 57 164 142 349 57 272 b 272 -14 57 47 140 -14 b 526 106 399 -14 489 29 b 606 17 538 60 565 31 b 469 -150 519 -17 469 -71 b 650 -299 469 -247 544 -299 b 779 -269 701 -299 746 -290 l 751 -171 b 682 -186 732 -183 706 -186 z m 332 115 b 253 183 282 115 253 139 b 346 265 253 229 285 251 l 494 299 l 494 226 b 332 115 494 153 404 115 z "},"å":{"ha":797,"x_min":0,"x_max":0,"o":"m 382 778 b 564 944 494 778 564 843 b 382 1111 564 1046 494 1111 b 199 944 269 1111 199 1046 b 382 778 199 843 269 778 z m 382 1025 b 464 944 431 1025 464 993 b 382 865 464 897 431 865 b 300 944 333 865 300 897 b 382 1025 300 993 333 1025 z m 735 115 b 683 168 699 115 683 132 l 683 453 b 368 708 683 625 561 708 b 65 515 199 708 94 633 l 217 451 b 376 569 238 539 296 569 b 494 449 451 569 494 522 l 494 415 l 328 383 b 57 164 142 349 57 272 b 272 -14 57 47 140 -14 b 518 90 389 -14 476 22 b 678 -14 538 15 594 -14 b 768 6 713 -14 743 -7 l 782 121 b 735 115 768 117 751 115 z m 332 115 b 253 183 282 115 253 139 b 346 265 253 229 285 251 l 494 299 l 494 226 b 332 115 494 153 404 115 z "},"ã":{"ha":797,"x_min":0,"x_max":0,"o":"m 290 874 b 475 789 346 874 369 789 b 649 997 582 789 642 858 l 532 997 b 474 913 525 942 508 913 b 290 997 419 913 394 997 b 115 789 181 997 122 928 l 232 789 b 290 874 239 844 256 874 z m 735 115 b 683 168 699 115 683 132 l 683 453 b 368 708 683 625 561 708 b 65 515 199 708 94 633 l 217 451 b 376 569 238 539 296 569 b 494 449 451 569 494 522 l 494 415 l 328 383 b 57 164 142 349 57 272 b 272 -14 57 47 140 -14 b 518 90 389 -14 476 22 b 678 -14 538 15 594 -14 b 768 6 713 -14 743 -7 l 782 121 b 735 115 768 117 751 115 z m 332 115 b 253 183 282 115 253 139 b 346 265 253 229 285 251 l 494 299 l 494 226 b 332 115 494 153 404 115 z "},"æ":{"ha":1225,"x_min":0,"x_max":0,"o":"m 1161 378 b 842 708 1161 567 1054 708 b 613 596 744 708 665 668 b 379 708 567 669 486 708 b 68 508 203 708 97 631 l 219 456 b 371 569 244 535 296 569 b 501 449 456 569 501 524 l 501 414 l 315 378 b 57 164 140 344 57 276 b 283 -14 57 57 138 -14 b 592 119 433 -14 543 26 b 849 -14 643 31 731 -14 b 1147 157 1006 -14 1103 46 l 993 214 b 853 128 974 158 935 128 b 690 289 768 128 706 179 l 1156 289 b 1161 378 1158 310 1161 343 z m 847 568 b 989 406 940 568 979 508 l 690 406 b 847 568 704 514 760 568 z m 340 115 b 253 183 278 115 253 139 b 374 276 253 235 290 256 l 501 306 l 501 256 b 340 115 501 164 422 115 z "},"b":{"ha":874,"x_min":0,"x_max":0,"o":"m 508 708 b 290 581 406 708 331 657 l 290 999 l 100 999 l 100 0 l 268 0 l 275 138 b 508 -14 314 47 396 -14 b 806 346 693 -14 806 119 b 508 708 806 574 693 708 z m 451 132 b 290 317 360 132 299 197 l 290 378 b 451 563 297 494 358 563 b 615 347 553 563 615 489 b 451 132 615 206 553 132 z "},"c":{"ha":790,"x_min":0,"x_max":0,"o":"m 418 708 b 64 347 196 708 64 575 b 425 -14 64 119 194 -14 b 739 196 601 -14 710 72 l 567 251 b 422 128 553 172 506 128 b 254 346 319 128 254 197 b 424 567 254 492 315 567 b 558 440 497 567 542 524 l 736 504 b 418 708 703 618 614 708 z "},"ć":{"ha":790,"x_min":0,"x_max":0,"o":"m 415 1031 l 318 794 l 460 794 l 599 1031 z m 418 708 b 64 347 196 708 64 575 b 425 -14 64 119 194 -14 b 739 196 601 -14 710 72 l 567 251 b 422 128 553 172 506 128 b 254 346 319 128 254 197 b 424 567 254 492 315 567 b 558 440 497 567 542 524 l 736 504 b 418 708 703 618 614 708 z "},"č":{"ha":790,"x_min":0,"x_max":0,"o":"m 657 1031 l 511 1031 l 408 899 l 306 1031 l 160 1031 l 313 794 l 504 794 z m 418 708 b 64 347 196 708 64 575 b 425 -14 64 119 194 -14 b 739 196 601 -14 710 72 l 567 251 b 422 128 553 172 506 128 b 254 346 319 128 254 197 b 424 567 254 492 315 567 b 558 440 497 567 542 524 l 736 504 b 418 708 703 618 614 708 z "},"ç":{"ha":790,"x_min":0,"x_max":0,"o":"m 739 196 l 567 251 b 422 128 553 172 506 128 b 254 346 319 128 254 197 b 424 567 254 492 315 567 b 558 440 497 567 542 524 l 736 504 b 418 708 703 618 614 708 b 64 347 196 708 64 575 b 365 -11 64 140 172 11 b 467 -115 444 -42 467 -71 b 390 -189 467 -161 435 -189 b 292 -147 349 -189 314 -171 l 242 -246 b 407 -299 278 -279 328 -299 b 592 -140 517 -299 592 -239 b 515 -6 592 -90 565 -42 b 739 196 639 18 715 94 z "},"d":{"ha":874,"x_min":0,"x_max":0,"o":"m 582 999 l 582 581 b 365 708 543 658 468 708 b 68 346 181 708 68 574 b 365 -14 68 119 181 -14 b 594 129 472 -14 554 44 l 603 0 l 772 0 l 772 999 z m 421 132 b 258 347 321 132 258 206 b 421 563 258 489 321 563 b 582 354 521 563 582 486 l 582 340 b 421 132 582 206 519 132 z "},"ð":{"ha":847,"x_min":0,"x_max":0,"o":"m 776 863 l 757 938 l 596 897 b 453 1007 553 940 504 978 l 258 1007 b 454 865 339 960 403 914 l 253 831 l 267 757 l 506 811 b 613 585 560 747 593 675 b 401 682 572 647 504 682 b 68 335 207 682 68 553 b 410 -14 68 115 199 -14 b 772 414 661 -14 772 138 b 642 843 772 593 722 735 z m 422 128 b 261 335 319 128 261 199 b 426 549 261 476 319 549 b 592 335 532 549 592 476 b 422 128 592 214 532 128 z "},"ď":{"ha":954,"x_min":0,"x_max":0,"o":"m 867 999 l 839 688 l 953 688 l 1019 999 z m 582 581 b 365 708 543 658 468 708 b 68 346 181 708 68 574 b 365 -14 68 119 181 -14 b 594 129 472 -14 554 44 l 603 0 l 772 0 l 772 999 l 582 999 z m 421 132 b 258 347 321 132 258 206 b 421 563 258 489 321 563 b 582 354 521 563 582 486 l 582 340 b 421 132 582 206 519 132 z "},"đ":{"ha":872,"x_min":0,"x_max":0,"o":"m 879 878 l 772 878 l 772 999 l 582 999 l 582 878 l 388 878 l 388 761 l 582 761 l 582 581 b 365 708 543 658 468 708 b 68 346 181 708 68 574 b 365 -14 68 119 181 -14 b 594 129 472 -14 554 44 l 603 0 l 772 0 l 772 761 l 879 761 z m 421 132 b 258 347 321 132 258 206 b 421 563 258 489 321 563 b 582 354 521 563 582 486 l 582 340 b 421 132 582 206 519 132 z "},"e":{"ha":808,"x_min":0,"x_max":0,"o":"m 749 350 b 414 708 749 578 631 708 b 64 347 190 708 64 575 b 425 -14 64 119 194 -14 b 733 157 582 -14 689 46 l 578 214 b 425 128 558 158 506 128 b 251 275 332 128 271 175 l 743 275 b 749 350 746 293 749 331 z m 413 568 b 574 408 500 568 558 513 l 250 408 b 413 568 265 514 321 568 z "},"é":{"ha":808,"x_min":0,"x_max":0,"o":"m 597 1031 l 414 1031 l 317 794 l 458 794 z m 749 350 b 414 708 749 578 631 708 b 64 347 190 708 64 575 b 425 -14 64 119 194 -14 b 733 157 582 -14 689 46 l 578 214 b 425 128 558 158 506 128 b 251 275 332 128 271 175 l 743 275 b 749 350 746 293 749 331 z m 413 568 b 574 408 500 568 558 513 l 250 408 b 413 568 265 514 321 568 z "},"ě":{"ha":808,"x_min":0,"x_max":0,"o":"m 503 794 l 656 1031 l 510 1031 l 407 899 l 304 1031 l 158 1031 l 311 794 z m 749 350 b 414 708 749 578 631 708 b 64 347 190 708 64 575 b 425 -14 64 119 194 -14 b 733 157 582 -14 689 46 l 578 214 b 425 128 558 158 506 128 b 251 275 332 128 271 175 l 743 275 b 749 350 746 293 749 331 z m 413 568 b 574 408 500 568 558 513 l 250 408 b 413 568 265 514 321 568 z "},"ê":{"ha":808,"x_min":0,"x_max":0,"o":"m 410 917 l 513 785 l 658 785 l 506 1021 l 314 1021 l 161 785 l 307 785 z m 749 350 b 414 708 749 578 631 708 b 64 347 190 708 64 575 b 425 -14 64 119 194 -14 b 733 157 582 -14 689 46 l 578 214 b 425 128 558 158 506 128 b 251 275 332 128 271 175 l 743 275 b 749 350 746 293 749 331 z m 413 568 b 574 408 500 568 558 513 l 250 408 b 413 568 265 514 321 568 z "},"ë":{"ha":808,"x_min":0,"x_max":0,"o":"m 263 785 b 367 882 328 785 367 822 b 263 979 367 942 328 979 b 160 882 199 979 160 942 b 263 785 160 822 199 785 z m 554 785 b 660 882 619 785 660 822 b 554 979 660 942 619 979 b 451 882 492 979 451 942 b 554 785 451 822 492 785 z m 749 350 b 414 708 749 578 631 708 b 64 347 190 708 64 575 b 425 -14 64 119 194 -14 b 733 157 582 -14 689 46 l 578 214 b 425 128 558 158 506 128 b 251 275 332 128 271 175 l 743 275 b 749 350 746 293 749 331 z m 413 568 b 574 408 500 568 558 513 l 250 408 b 413 568 265 514 321 568 z "},"ė":{"ha":808,"x_min":0,"x_max":0,"o":"m 410 797 b 522 899 482 797 522 835 b 410 1000 522 963 482 1000 b 299 899 339 1000 299 963 b 410 797 299 835 339 797 z m 749 350 b 414 708 749 578 631 708 b 64 347 190 708 64 575 b 425 -14 64 119 194 -14 b 733 157 582 -14 689 46 l 578 214 b 425 128 558 158 506 128 b 251 275 332 128 271 175 l 743 275 b 749 350 746 293 749 331 z m 413 568 b 574 408 500 568 558 513 l 250 408 b 413 568 265 514 321 568 z "},"è":{"ha":808,"x_min":0,"x_max":0,"o":"m 490 794 l 393 1031 l 210 1031 l 349 794 z m 749 350 b 414 708 749 578 631 708 b 64 347 190 708 64 575 b 425 -14 64 119 194 -14 b 733 157 582 -14 689 46 l 578 214 b 425 128 558 158 506 128 b 251 275 332 128 271 175 l 743 275 b 749 350 746 293 749 331 z m 413 568 b 574 408 500 568 558 513 l 250 408 b 413 568 265 514 321 568 z "},"ē":{"ha":808,"x_min":0,"x_max":0,"o":"m 663 931 l 157 931 l 157 804 l 663 804 z m 749 350 b 414 708 749 578 631 708 b 64 347 190 708 64 575 b 425 -14 64 119 194 -14 b 733 157 582 -14 689 46 l 578 214 b 425 128 558 158 506 128 b 251 275 332 128 271 175 l 743 275 b 749 350 746 293 749 331 z m 413 568 b 574 408 500 568 558 513 l 250 408 b 413 568 265 514 321 568 z "},"ę":{"ha":808,"x_min":0,"x_max":0,"o":"m 749 350 b 414 708 749 578 631 708 b 64 347 190 708 64 575 b 381 -12 64 135 178 4 b 304 -149 333 -47 304 -92 b 488 -299 304 -244 382 -299 b 619 -269 539 -299 586 -290 l 592 -171 b 522 -186 572 -183 546 -186 b 443 -117 475 -186 443 -160 b 549 1 443 -75 476 -39 b 733 157 639 25 701 78 l 578 214 b 425 128 558 158 506 128 b 251 275 332 128 271 175 l 743 275 b 749 350 746 293 749 331 z m 413 568 b 574 408 500 568 558 513 l 250 408 b 413 568 265 514 321 568 z "},"f":{"ha":565,"x_min":0,"x_max":0,"o":"m 332 764 b 451 871 332 840 376 871 b 531 850 486 871 510 864 l 557 976 b 413 1013 528 999 475 1013 b 150 778 257 1013 150 935 l 150 694 l 29 694 l 29 553 l 150 553 l 150 0 l 340 0 l 340 553 l 551 553 l 551 694 l 332 694 z "},"g":{"ha":778,"x_min":0,"x_max":0,"o":"m 522 131 l 288 131 b 208 188 239 131 208 150 b 263 250 208 219 224 240 b 388 238 300 242 342 238 b 707 472 586 238 707 328 b 601 658 707 554 669 618 b 764 724 622 704 676 732 l 739 860 b 528 690 614 867 550 793 b 388 708 488 701 440 708 b 69 472 190 708 69 618 b 178 283 69 389 107 324 b 68 143 113 260 68 213 b 171 4 68 75 113 29 b 44 -128 85 -17 44 -67 b 386 -299 44 -229 146 -299 b 760 -62 604 -299 760 -214 b 522 131 760 63 672 131 z m 388 589 b 515 474 463 589 515 543 b 388 357 515 403 463 357 b 261 474 314 357 261 403 b 388 589 261 543 314 589 z m 401 -168 b 196 -86 260 -168 196 -136 b 311 -24 196 -46 231 -24 l 500 -24 b 604 -82 578 -24 604 -46 b 401 -168 604 -129 536 -168 z "},"ğ":{"ha":763,"x_min":0,"x_max":0,"o":"m 392 782 b 615 1000 528 782 615 867 l 485 1000 b 392 896 485 942 447 896 b 297 1000 335 896 297 942 l 167 1000 b 392 782 167 867 254 782 z m 774 724 l 747 860 b 553 678 643 860 561 783 b 379 708 504 697 446 708 b 61 472 182 708 61 618 b 169 283 61 389 99 324 b 60 143 104 260 60 213 b 163 4 60 75 104 29 b 35 -128 76 -17 35 -67 b 378 -299 35 -229 138 -299 b 750 -62 594 -299 750 -214 b 514 131 750 63 664 131 l 279 131 b 200 188 229 131 200 150 b 254 250 200 219 215 240 b 379 238 292 242 333 238 b 699 472 576 238 699 328 b 628 633 699 539 674 593 b 774 724 638 699 693 728 z m 379 357 b 253 474 306 357 253 403 b 379 589 253 543 306 589 b 507 474 453 589 507 543 b 379 357 507 403 453 357 z m 490 -24 b 594 -82 569 -24 594 -46 b 393 -168 594 -129 528 -168 b 186 -86 251 -168 186 -136 b 301 -24 186 -46 222 -24 z "},"h":{"ha":860,"x_min":0,"x_max":0,"o":"m 514 708 b 290 576 415 708 335 667 l 290 999 l 100 999 l 100 0 l 290 0 l 290 367 b 450 558 290 506 369 558 b 574 400 522 558 574 519 l 574 0 l 764 0 l 764 456 b 514 708 764 624 658 708 z "},"i":{"ha":392,"x_min":0,"x_max":0,"o":"m 196 794 b 314 896 275 794 314 828 b 196 999 314 964 275 999 b 78 896 117 999 78 964 b 196 794 78 828 117 794 z m 290 694 l 100 694 l 100 0 l 290 0 z "},"ı":{"ha":392,"x_min":0,"x_max":0,"o":"m 290 694 l 100 694 l 100 0 l 290 0 z "},"í":{"ha":392,"x_min":0,"x_max":0,"o":"m 208 1031 l 111 794 l 253 794 l 392 1031 z m 290 694 l 100 694 l 100 0 l 290 0 z "},"î":{"ha":392,"x_min":0,"x_max":0,"o":"m 444 785 l 292 1021 l 100 1021 l -53 785 l 93 785 l 196 917 l 299 785 z m 290 694 l 100 694 l 100 0 l 290 0 z "},"ï":{"ha":392,"x_min":0,"x_max":0,"o":"m 71 783 b 171 882 135 783 171 819 b 71 981 171 944 135 981 b -29 882 7 981 -29 944 b 71 783 -29 819 7 783 z m 321 783 b 421 882 385 783 421 819 b 321 981 421 944 385 981 b 221 882 257 981 221 944 b 321 783 221 819 257 783 z m 290 694 l 100 694 l 100 0 l 290 0 z "},"ì":{"ha":392,"x_min":0,"x_max":0,"o":"m 179 1031 l -4 1031 l 135 794 l 276 794 z m 290 694 l 100 694 l 100 0 l 290 0 z "},"ĳ":{"ha":782,"x_min":0,"x_max":0,"o":"m 196 794 b 314 896 275 794 314 828 b 196 999 314 964 275 999 b 78 896 117 999 78 964 b 196 794 78 828 117 794 z m 588 999 b 469 896 511 999 469 961 b 588 794 469 831 511 794 b 706 896 664 794 706 831 b 588 999 706 961 664 999 z m 290 694 l 100 694 l 100 0 l 290 0 z m 682 694 l 492 694 l 492 -33 b 396 -151 492 -121 456 -151 b 299 -118 356 -151 321 -137 l 269 -254 b 435 -299 310 -282 367 -299 b 682 -51 575 -299 682 -233 z "},"ī":{"ha":392,"x_min":0,"x_max":0,"o":"m 372 931 l 19 931 l 19 804 l 372 804 z m 290 694 l 100 694 l 100 0 l 290 0 z "},"į":{"ha":392,"x_min":0,"x_max":0,"o":"m 196 794 b 314 896 275 794 314 828 b 196 999 314 964 275 999 b 78 896 117 999 78 964 b 196 794 78 828 117 794 z m 293 -169 b 221 -186 274 -181 246 -186 b 146 -124 172 -186 146 -161 b 290 0 146 -75 188 -37 l 290 694 l 100 694 l 100 0 l 117 0 b 8 -151 47 -36 8 -85 b 188 -299 8 -247 83 -299 b 324 -267 246 -299 288 -289 z "},"j":{"ha":390,"x_min":0,"x_max":0,"o":"m 196 999 b 78 896 119 999 78 961 b 196 794 78 831 119 794 b 314 896 272 794 314 831 b 196 999 314 961 272 999 z m 290 694 l 100 694 l 100 -33 b 4 -151 100 -121 64 -151 b -93 -118 -36 -151 -71 -137 l -124 -254 b 43 -299 -82 -282 -25 -299 b 290 -51 183 -299 290 -233 z "},"k":{"ha":836,"x_min":0,"x_max":0,"o":"m 608 0 l 824 0 l 546 422 l 807 694 l 592 694 l 290 378 l 290 999 l 100 999 l 100 0 l 290 0 l 290 172 l 417 307 z "},"l":{"ha":443,"x_min":0,"x_max":0,"o":"m 288 999 l 97 999 l 97 193 b 292 -14 97 49 157 -14 b 421 15 338 -14 390 -3 l 438 147 b 356 132 407 136 388 132 b 288 221 304 132 288 156 z "},"ĺ":{"ha":451,"x_min":0,"x_max":0,"o":"m 181 1283 l 118 1082 l 260 1082 l 360 1283 z m 288 999 l 97 999 l 97 193 b 292 -14 97 49 157 -14 b 421 15 338 -14 390 -3 l 438 147 b 356 132 407 136 388 132 b 288 221 304 132 288 156 z "},"ľ":{"ha":504,"x_min":0,"x_max":0,"o":"m 532 999 l 379 999 l 350 688 l 464 688 z m 288 999 l 97 999 l 97 193 b 292 -14 97 49 157 -14 b 421 15 338 -14 390 -3 l 438 147 b 356 132 407 136 388 132 b 288 221 304 132 288 156 z "},"ŀ":{"ha":644,"x_min":0,"x_max":0,"o":"m 288 999 l 97 999 l 97 193 b 292 -14 97 49 157 -14 b 421 15 338 -14 390 -3 l 438 147 b 356 132 407 136 388 132 b 288 221 304 132 288 156 z m 517 604 b 396 492 442 604 396 561 b 517 379 396 422 442 379 b 638 492 590 379 638 422 b 517 604 638 561 590 604 z "},"ł":{"ha":536,"x_min":0,"x_max":0,"o":"m 500 551 l 500 704 l 347 604 l 347 999 l 157 999 l 157 492 l 32 425 l 32 274 l 157 354 l 157 193 b 351 -14 157 49 217 -14 b 481 15 399 -14 450 -3 l 497 147 b 415 132 467 136 447 132 b 347 221 364 132 347 156 l 347 469 z "},"m":{"ha":1313,"x_min":0,"x_max":0,"o":"m 969 708 b 733 568 872 708 779 661 b 507 708 696 663 607 708 b 276 571 408 708 324 663 l 271 694 l 100 694 l 100 0 l 290 0 l 290 368 b 443 558 290 504 369 558 b 564 418 514 558 564 519 l 564 0 l 754 0 l 754 374 b 907 558 754 494 822 558 b 1026 418 976 558 1026 519 l 1026 0 l 1217 0 l 1217 456 b 969 708 1217 626 1104 708 z "},"n":{"ha":860,"x_min":0,"x_max":0,"o":"m 514 708 b 276 571 410 708 324 664 l 271 694 l 100 694 l 100 0 l 290 0 l 290 367 b 450 558 290 506 369 558 b 574 400 522 558 574 519 l 574 0 l 764 0 l 764 456 b 514 708 764 624 658 708 z "},"ń":{"ha":860,"x_min":0,"x_max":0,"o":"m 625 1031 l 442 1031 l 344 794 l 486 794 z m 514 708 b 276 571 410 708 324 664 l 271 694 l 100 694 l 100 0 l 290 0 l 290 367 b 450 558 290 506 369 558 b 574 400 522 558 574 519 l 574 0 l 764 0 l 764 456 b 514 708 764 624 658 708 z "},"ň":{"ha":860,"x_min":0,"x_max":0,"o":"m 529 794 l 682 1031 l 536 1031 l 433 899 l 331 1031 l 185 1031 l 338 794 z m 514 708 b 276 571 410 708 324 664 l 271 694 l 100 694 l 100 0 l 290 0 l 290 367 b 450 558 290 506 369 558 b 574 400 522 558 574 519 l 574 0 l 764 0 l 764 456 b 514 708 764 624 658 708 z "},"ñ":{"ha":860,"x_min":0,"x_max":0,"o":"m 344 874 b 529 789 400 874 424 789 b 703 997 636 789 696 858 l 586 997 b 528 913 579 942 563 913 b 344 997 474 913 449 997 b 169 789 235 997 176 928 l 286 789 b 344 874 293 844 310 874 z m 514 708 b 276 571 410 708 324 664 l 271 694 l 100 694 l 100 0 l 290 0 l 290 367 b 450 558 290 506 369 558 b 574 400 522 558 574 519 l 574 0 l 764 0 l 764 456 b 514 708 764 624 658 708 z "},"o":{"ha":839,"x_min":0,"x_max":0,"o":"m 419 708 b 64 347 196 708 64 574 b 419 -14 64 121 196 -14 b 775 347 643 -14 775 121 b 419 708 775 574 643 708 z m 419 567 b 585 347 526 567 585 494 b 419 128 585 200 526 128 b 254 347 313 128 254 200 b 419 567 254 494 313 567 z "},"ó":{"ha":839,"x_min":0,"x_max":0,"o":"m 424 1031 l 326 794 l 468 794 l 607 1031 z m 419 708 b 64 347 196 708 64 574 b 419 -14 64 121 196 -14 b 775 347 643 -14 775 121 b 419 708 775 574 643 708 z m 419 567 b 585 347 526 567 585 494 b 419 128 585 200 526 128 b 254 347 313 128 254 200 b 419 567 254 494 313 567 z "},"ô":{"ha":839,"x_min":0,"x_max":0,"o":"m 668 785 l 515 1021 l 324 1021 l 171 785 l 317 785 l 419 917 l 522 785 z m 419 708 b 64 347 196 708 64 574 b 419 -14 64 121 196 -14 b 775 347 643 -14 775 121 b 419 708 775 574 643 708 z m 419 567 b 585 347 526 567 585 494 b 419 128 585 200 526 128 b 254 347 313 128 254 200 b 419 567 254 494 313 567 z "},"ö":{"ha":839,"x_min":0,"x_max":0,"o":"m 272 979 b 169 882 208 979 169 942 b 272 785 169 822 208 785 b 376 882 338 785 376 822 b 272 979 376 942 338 979 z m 564 979 b 461 882 501 979 461 942 b 564 785 461 822 501 785 b 669 882 629 785 669 822 b 564 979 669 942 629 979 z m 419 708 b 64 347 196 708 64 574 b 419 -14 64 121 196 -14 b 775 347 643 -14 775 121 b 419 708 775 574 643 708 z m 419 567 b 585 347 526 567 585 494 b 419 128 585 200 526 128 b 254 347 313 128 254 200 b 419 567 254 494 313 567 z "},"ò":{"ha":839,"x_min":0,"x_max":0,"o":"m 403 1031 l 219 1031 l 358 794 l 500 794 z m 419 708 b 64 347 196 708 64 574 b 419 -14 64 121 196 -14 b 775 347 643 -14 775 121 b 419 708 775 574 643 708 z m 419 567 b 585 347 526 567 585 494 b 419 128 585 200 526 128 b 254 347 313 128 254 200 b 419 567 254 494 313 567 z "},"ő":{"ha":839,"x_min":0,"x_max":0,"o":"m 461 1031 l 292 1031 l 192 794 l 328 794 z m 738 1031 l 567 1031 l 468 794 l 604 794 z m 419 708 b 64 347 196 708 64 574 b 419 -14 64 121 196 -14 b 775 347 643 -14 775 121 b 419 708 775 574 643 708 z m 419 567 b 585 347 526 567 585 494 b 419 128 585 200 526 128 b 254 347 313 128 254 200 b 419 567 254 494 313 567 z "},"ō":{"ha":839,"x_min":0,"x_max":0,"o":"m 672 931 l 167 931 l 167 804 l 672 804 z m 419 708 b 64 347 196 708 64 574 b 419 -14 64 121 196 -14 b 775 347 643 -14 775 121 b 419 708 775 574 643 708 z m 419 567 b 585 347 526 567 585 494 b 419 128 585 200 526 128 b 254 347 313 128 254 200 b 419 567 254 494 313 567 z "},"ø":{"ha":840,"x_min":0,"x_max":0,"o":"m 419 708 b 64 347 196 708 64 574 b 165 75 64 229 100 136 l 76 -43 l 169 -43 l 225 31 b 419 -14 278 1 343 -14 b 775 347 643 -14 775 121 b 683 610 775 460 743 549 l 774 725 l 681 725 l 626 656 b 419 708 571 690 503 708 z m 286 217 b 254 347 265 251 254 294 b 419 567 254 494 313 567 b 522 532 463 567 496 556 l 326 272 l 288 217 z m 419 128 b 328 154 383 128 351 136 l 522 411 l 557 463 l 558 463 b 585 347 576 432 585 393 b 419 128 585 200 526 128 z "},"õ":{"ha":839,"x_min":0,"x_max":0,"o":"m 685 997 l 568 997 b 510 913 561 942 544 913 b 326 997 456 913 431 997 b 151 789 217 997 158 928 l 268 789 b 326 874 275 844 292 874 b 511 789 382 874 406 789 b 685 997 618 789 678 858 z m 419 708 b 64 347 196 708 64 574 b 419 -14 64 121 196 -14 b 775 347 643 -14 775 121 b 419 708 775 574 643 708 z m 419 567 b 585 347 526 567 585 494 b 419 128 585 200 526 128 b 254 347 313 128 254 200 b 419 567 254 494 313 567 z "},"œ":{"ha":1343,"x_min":0,"x_max":0,"o":"m 1281 378 b 947 708 1281 567 1165 708 b 688 576 828 708 740 661 b 415 708 633 661 540 708 b 64 347 197 708 64 574 b 415 -14 64 121 197 -14 b 689 119 540 -14 633 33 b 958 -14 743 33 835 -14 b 1267 157 1115 -14 1222 46 l 1111 214 b 958 128 1093 158 1039 128 b 782 299 858 128 796 182 l 1274 299 b 1281 378 1278 317 1281 347 z m 947 568 b 1100 404 1038 568 1088 507 l 783 404 b 947 568 797 513 854 568 z m 422 128 b 258 347 315 128 258 200 b 422 567 258 494 315 567 b 588 347 529 567 588 494 b 422 128 588 200 529 128 z "},"p":{"ha":874,"x_min":0,"x_max":0,"o":"m 508 708 b 275 557 396 708 314 647 l 268 694 l 100 694 l 100 -292 l 290 -292 l 290 114 b 508 -14 331 38 406 -14 b 806 349 693 -14 806 121 b 508 708 806 575 693 708 z m 451 132 b 290 317 358 132 297 200 l 290 378 b 451 563 299 497 360 563 b 615 347 553 563 615 489 b 451 132 615 206 553 132 z "},"þ":{"ha":874,"x_min":0,"x_max":0,"o":"m 513 708 b 290 583 407 708 332 657 l 290 999 l 100 999 l 100 -292 l 290 -292 l 290 103 b 508 -14 332 32 407 -14 b 806 351 665 -14 806 93 b 513 708 806 588 683 708 z m 451 132 b 290 340 353 132 290 208 l 290 354 b 451 563 290 489 354 563 b 615 347 557 563 615 489 b 451 132 615 206 557 132 z "},"q":{"ha":874,"x_min":0,"x_max":0,"o":"m 607 694 l 599 558 b 365 708 560 647 476 708 b 68 349 181 708 68 575 b 367 -14 68 121 182 -14 b 583 115 468 -14 543 38 l 583 -292 l 774 -292 l 774 694 z m 422 132 b 260 347 321 132 260 206 b 422 563 260 489 321 563 b 583 354 521 563 583 489 l 583 340 b 422 132 583 208 522 132 z "},"r":{"ha":586,"x_min":0,"x_max":0,"o":"m 493 708 b 278 558 385 708 314 654 l 265 694 l 100 694 l 100 0 l 290 0 l 290 360 b 457 547 290 486 374 547 b 544 526 493 547 525 539 l 568 693 b 493 708 551 703 524 708 z "},"ŕ":{"ha":586,"x_min":0,"x_max":0,"o":"m 504 1031 l 321 1031 l 224 794 l 365 794 z m 493 708 b 278 558 385 708 314 654 l 265 694 l 100 694 l 100 0 l 290 0 l 290 360 b 457 547 290 486 374 547 b 544 526 493 547 525 539 l 568 693 b 493 708 551 703 524 708 z "},"ř":{"ha":586,"x_min":0,"x_max":0,"o":"m 410 794 l 563 1031 l 417 1031 l 314 899 l 211 1031 l 65 1031 l 218 794 z m 493 708 b 278 558 385 708 314 654 l 265 694 l 100 694 l 100 0 l 290 0 l 290 360 b 457 547 290 486 374 547 b 544 526 493 547 525 539 l 568 693 b 493 708 551 703 524 708 z "},"s":{"ha":738,"x_min":0,"x_max":0,"o":"m 369 -14 b 686 201 576 -14 686 76 b 408 418 686 317 611 378 b 257 503 292 442 257 465 b 382 569 257 539 304 569 b 564 454 475 569 531 532 l 689 561 b 379 708 625 661 539 708 b 67 485 174 708 67 597 b 356 260 67 369 139 303 b 494 188 457 239 494 219 b 367 125 494 150 449 125 b 158 233 272 125 197 150 l 47 119 b 369 -14 111 25 226 -14 z "},"ś":{"ha":738,"x_min":0,"x_max":0,"o":"m 381 1031 l 283 794 l 425 794 l 564 1031 z m 369 -14 b 686 201 576 -14 686 76 b 408 418 686 317 611 378 b 257 503 292 442 257 465 b 382 569 257 539 304 569 b 564 454 475 569 531 532 l 689 561 b 379 708 625 661 539 708 b 67 485 174 708 67 597 b 356 260 67 369 139 303 b 494 188 457 239 494 219 b 367 125 494 150 449 125 b 158 233 272 125 197 150 l 47 119 b 369 -14 111 25 226 -14 z "},"š":{"ha":738,"x_min":0,"x_max":0,"o":"m 622 1031 l 476 1031 l 374 899 l 271 1031 l 125 1031 l 278 794 l 469 794 z m 369 -14 b 686 201 576 -14 686 76 b 408 418 686 317 611 378 b 257 503 292 442 257 465 b 382 569 257 539 304 569 b 564 454 475 569 531 532 l 689 561 b 379 708 625 661 539 708 b 67 485 174 708 67 597 b 356 260 67 369 139 303 b 494 188 457 239 494 219 b 367 125 494 150 449 125 b 158 233 272 125 197 150 l 47 119 b 369 -14 111 25 226 -14 z "},"ß":{"ha":885,"x_min":0,"x_max":0,"o":"m 571 519 l 571 522 b 797 740 725 522 797 638 b 468 1006 797 875 697 1006 b 100 658 196 1006 100 868 l 100 0 l 290 0 l 290 635 b 461 858 290 786 332 858 b 610 725 556 858 610 814 b 458 583 610 643 554 583 l 411 583 l 396 439 l 458 439 b 642 288 576 439 642 386 b 494 131 642 194 589 131 b 392 164 447 131 417 142 l 356 32 b 518 -14 389 6 449 -14 b 825 263 726 -14 825 119 b 571 519 825 394 744 519 z "},"ſ":{"ha":418,"x_min":0,"x_max":0,"o":"m 97 0 l 283 0 l 283 763 b 381 871 283 839 321 871 b 442 853 406 871 424 865 l 458 979 b 333 1013 432 1003 393 1013 b 97 778 188 1013 97 935 z "},"t":{"ha":596,"x_min":0,"x_max":0,"o":"m 547 169 b 440 131 518 144 486 131 b 344 226 381 131 344 160 l 344 553 l 569 553 l 569 694 l 344 694 l 344 907 l 154 854 l 154 694 l 28 694 l 28 553 l 154 553 l 154 196 b 386 -14 154 43 249 -14 b 576 43 460 -14 532 7 z "},"ť":{"ha":596,"x_min":0,"x_max":0,"o":"m 599 1065 l 446 1065 l 417 772 l 531 772 z m 440 131 b 344 226 381 131 344 160 l 344 553 l 569 553 l 569 694 l 344 694 l 344 907 l 154 854 l 154 694 l 28 694 l 28 553 l 154 553 l 154 196 b 386 -14 154 43 249 -14 b 576 43 460 -14 532 7 l 547 169 b 440 131 518 144 486 131 z "},"u":{"ha":860,"x_min":0,"x_max":0,"o":"m 569 694 l 569 322 b 407 136 569 193 497 136 b 286 283 332 136 286 171 l 286 694 l 96 694 l 96 235 b 340 -14 96 57 200 -14 b 583 119 451 -14 538 28 l 590 0 l 760 0 l 760 694 z "},"ú":{"ha":860,"x_min":0,"x_max":0,"o":"m 614 1031 l 431 1031 l 333 794 l 475 794 z m 569 694 l 569 322 b 407 136 569 193 497 136 b 286 283 332 136 286 171 l 286 694 l 96 694 l 96 235 b 340 -14 96 57 200 -14 b 583 119 451 -14 538 28 l 590 0 l 760 0 l 760 694 z "},"û":{"ha":860,"x_min":0,"x_max":0,"o":"m 425 917 l 528 785 l 674 785 l 521 1021 l 329 1021 l 176 785 l 322 785 z m 569 694 l 569 322 b 407 136 569 193 497 136 b 286 283 332 136 286 171 l 286 694 l 96 694 l 96 235 b 340 -14 96 57 200 -14 b 583 119 451 -14 538 28 l 590 0 l 760 0 l 760 694 z "},"ü":{"ha":860,"x_min":0,"x_max":0,"o":"m 279 785 b 383 882 344 785 383 822 b 279 979 383 942 344 979 b 176 882 215 979 176 942 b 279 785 176 822 215 785 z m 571 785 b 676 882 636 785 676 822 b 571 979 676 942 636 979 b 468 882 508 979 468 942 b 571 785 468 822 508 785 z m 569 694 l 569 322 b 407 136 569 193 497 136 b 286 283 332 136 286 171 l 286 694 l 96 694 l 96 235 b 340 -14 96 57 200 -14 b 583 119 451 -14 538 28 l 590 0 l 760 0 l 760 694 z "},"ù":{"ha":860,"x_min":0,"x_max":0,"o":"m 506 794 l 408 1031 l 225 1031 l 364 794 z m 569 694 l 569 322 b 407 136 569 193 497 136 b 286 283 332 136 286 171 l 286 694 l 96 694 l 96 235 b 340 -14 96 57 200 -14 b 583 119 451 -14 538 28 l 590 0 l 760 0 l 760 694 z "},"ű":{"ha":860,"x_min":0,"x_max":0,"o":"m 467 1031 l 297 1031 l 197 794 l 333 794 z m 743 1031 l 572 1031 l 474 794 l 610 794 z m 569 694 l 569 322 b 407 136 569 193 497 136 b 286 283 332 136 286 171 l 286 694 l 96 694 l 96 235 b 340 -14 96 57 200 -14 b 583 119 451 -14 538 28 l 590 0 l 760 0 l 760 694 z "},"ū":{"ha":860,"x_min":0,"x_max":0,"o":"m 678 931 l 172 931 l 172 804 l 678 804 z m 569 694 l 569 322 b 407 136 569 193 497 136 b 286 283 332 136 286 171 l 286 694 l 96 694 l 96 235 b 340 -14 96 57 200 -14 b 583 119 451 -14 538 28 l 590 0 l 760 0 l 760 694 z "},"ģ":{"ha":763,"x_min":0,"x_max":0,"o":"m 519 1075 l 394 1075 l 296 794 l 467 794 z m 522 131 l 288 131 b 208 188 239 131 208 150 b 263 250 208 219 224 240 b 388 238 300 242 342 238 b 707 472 586 238 707 328 b 601 658 707 554 669 618 b 764 724 622 704 676 732 l 739 860 b 528 690 614 867 550 793 b 388 708 488 701 440 708 b 69 472 190 708 69 618 b 178 283 69 389 107 324 b 68 143 113 260 68 213 b 171 4 68 75 113 29 b 44 -128 85 -17 44 -67 b 386 -299 44 -229 146 -299 b 760 -62 604 -299 760 -214 b 522 131 760 63 672 131 z m 388 589 b 515 474 463 589 515 543 b 388 357 515 403 463 357 b 261 474 314 357 261 403 b 388 589 261 543 314 589 z m 401 -168 b 196 -86 260 -168 196 -136 b 311 -24 196 -46 231 -24 l 500 -24 b 604 -82 578 -24 604 -46 b 401 -168 604 -129 536 -168 z "},"ķ":{"ha":836,"x_min":0,"x_max":0,"o":"m 546 422 l 807 694 l 592 694 l 290 378 l 290 999 l 100 999 l 100 0 l 290 0 l 290 172 l 417 307 l 608 0 l 824 0 z m 308 -332 l 438 -332 l 533 -92 l 358 -92 z "},"ļ":{"ha":443,"x_min":0,"x_max":0,"o":"m 288 999 l 97 999 l 97 193 b 292 -14 97 49 157 -14 b 421 15 338 -14 390 -3 l 438 147 b 356 132 407 136 388 132 b 288 221 304 132 288 156 z m 361 -92 l 186 -92 l 136 -332 l 265 -332 z "},"ņ":{"ha":860,"x_min":0,"x_max":0,"o":"m 514 708 b 276 571 410 708 324 664 l 271 694 l 100 694 l 100 0 l 290 0 l 290 367 b 450 558 290 506 369 558 b 574 400 522 558 574 519 l 574 0 l 764 0 l 764 456 b 514 708 764 624 658 708 z m 314 -332 l 443 -332 l 539 -92 l 364 -92 z "},"ŗ":{"ha":586,"x_min":0,"x_max":0,"o":"m 493 708 b 278 558 385 708 314 654 l 265 694 l 100 694 l 100 0 l 290 0 l 290 360 b 457 547 290 486 374 547 b 544 526 493 547 525 539 l 568 693 b 493 708 551 703 524 708 z m 67 -332 l 196 -332 l 292 -92 l 117 -92 z "},"ş":{"ha":738,"x_min":0,"x_max":0,"o":"m 408 418 b 257 503 292 442 257 465 b 382 569 257 539 304 569 b 564 454 475 569 531 532 l 689 561 b 379 708 625 661 539 708 b 67 485 174 708 67 597 b 356 260 67 369 139 303 b 494 188 457 239 494 219 b 367 125 494 150 449 125 b 158 233 272 125 197 150 l 47 119 b 328 -12 104 35 204 -6 b 424 -115 403 -43 424 -72 b 347 -189 424 -161 392 -189 b 249 -147 306 -189 271 -171 l 199 -246 b 364 -299 235 -279 285 -299 b 549 -140 474 -299 549 -239 b 471 -6 549 -90 522 -42 b 686 201 613 19 686 99 b 408 418 686 317 611 378 z "},"ţ":{"ha":613,"x_min":0,"x_max":0,"o":"m 453 -8 b 576 43 501 0 546 18 l 547 169 b 440 131 518 144 486 131 b 344 226 381 131 344 160 l 344 553 l 569 553 l 569 694 l 344 694 l 344 907 l 154 854 l 154 694 l 28 694 l 28 553 l 154 553 l 154 196 b 292 -3 154 82 207 21 b 400 -115 375 -37 400 -65 b 321 -189 400 -161 368 -189 b 225 -147 281 -189 246 -171 l 175 -246 b 340 -299 211 -279 261 -299 b 525 -140 450 -299 525 -239 b 453 -8 525 -92 500 -44 z "},"ș":{"ha":738,"x_min":0,"x_max":0,"o":"m 369 -14 b 686 201 576 -14 686 76 b 408 418 686 317 611 378 b 257 503 292 442 257 465 b 382 569 257 539 304 569 b 564 454 475 569 531 532 l 689 561 b 379 708 625 661 539 708 b 67 485 174 708 67 597 b 356 260 67 369 139 303 b 494 188 457 239 494 219 b 367 125 494 150 449 125 b 158 233 272 125 197 150 l 47 119 b 369 -14 111 25 226 -14 z m 469 -92 l 294 -92 l 244 -332 l 374 -332 z "},"ț":{"ha":596,"x_min":0,"x_max":0,"o":"m 576 43 l 547 169 b 440 131 518 144 486 131 b 344 226 381 131 344 160 l 344 553 l 569 553 l 569 694 l 344 694 l 344 907 l 154 854 l 154 694 l 28 694 l 28 553 l 154 553 l 154 196 b 386 -14 154 43 249 -14 b 576 43 460 -14 532 7 z m 213 -332 l 342 -332 l 438 -92 l 263 -92 z "},"ų":{"ha":860,"x_min":0,"x_max":0,"o":"m 743 -171 b 674 -186 724 -182 697 -186 b 601 -124 629 -186 601 -165 b 760 0 601 -75 651 -37 l 760 694 l 569 694 l 569 329 b 403 136 569 206 493 136 b 286 283 332 136 286 171 l 286 694 l 96 694 l 96 235 b 340 -14 96 57 200 -14 b 582 133 442 -14 533 38 l 594 6 b 467 -156 513 -31 467 -81 b 639 -299 467 -247 533 -299 b 771 -268 690 -299 738 -289 z "},"ů":{"ha":860,"x_min":0,"x_max":0,"o":"m 425 778 b 607 944 538 778 607 843 b 425 1111 607 1046 538 1111 b 242 944 313 1111 242 1046 b 425 778 242 843 313 778 z m 425 1025 b 507 944 474 1025 507 993 b 425 865 507 897 474 865 b 343 944 376 865 343 897 b 425 1025 343 993 376 1025 z m 569 694 l 569 322 b 407 136 569 193 497 136 b 286 283 332 136 286 171 l 286 694 l 96 694 l 96 235 b 340 -14 96 57 200 -14 b 583 119 451 -14 538 28 l 590 0 l 760 0 l 760 694 z "},"v":{"ha":758,"x_min":0,"x_max":0,"o":"m 556 694 l 381 133 l 210 694 l 6 694 l 269 0 l 489 0 l 753 694 z "},"w":{"ha":1235,"x_min":0,"x_max":0,"o":"m 1006 694 l 867 153 l 711 694 l 524 694 l 368 153 l 229 694 l 28 694 l 249 0 l 468 0 l 614 490 l 765 0 l 986 0 l 1207 694 z "},"x":{"ha":790,"x_min":0,"x_max":0,"o":"m 767 0 l 517 351 l 763 694 l 549 694 l 400 451 l 251 694 l 32 694 l 275 351 l 19 0 l 232 0 l 392 253 l 549 0 z "},"y":{"ha":774,"x_min":0,"x_max":0,"o":"m 765 694 l 572 694 l 444 286 l 403 139 l 365 278 l 235 694 l 24 694 l 236 171 l 313 -10 l 288 -69 b 174 -153 263 -136 226 -153 b 57 -110 124 -153 88 -144 l 10 -244 b 186 -299 54 -282 110 -299 b 485 -43 336 -299 417 -232 z "},"ý":{"ha":774,"x_min":0,"x_max":0,"o":"m 410 1031 l 313 794 l 454 794 l 593 1031 z m 765 694 l 572 694 l 444 286 l 403 139 l 365 278 l 235 694 l 24 694 l 236 171 l 313 -10 l 288 -69 b 174 -153 263 -136 226 -153 b 57 -110 124 -153 88 -144 l 10 -244 b 186 -299 54 -282 110 -299 b 485 -43 336 -299 417 -232 z "},"ÿ":{"ha":774,"x_min":0,"x_max":0,"o":"m 258 979 b 156 882 194 979 156 942 b 258 785 156 822 194 785 b 363 882 324 785 363 822 b 258 979 363 942 324 979 z m 550 979 b 447 882 488 979 447 942 b 550 785 447 822 488 785 b 656 882 615 785 656 822 b 550 979 656 942 615 979 z m 765 694 l 572 694 l 444 286 l 403 139 l 365 278 l 235 694 l 24 694 l 236 171 l 313 -10 l 288 -69 b 174 -153 263 -136 226 -153 b 57 -110 124 -153 88 -144 l 10 -244 b 186 -299 54 -282 110 -299 b 485 -43 336 -299 417 -232 z "},"z":{"ha":725,"x_min":0,"x_max":0,"o":"m 61 0 l 671 0 l 671 140 l 400 140 l 272 138 l 351 218 l 658 572 l 658 694 l 64 694 l 64 554 l 332 554 l 447 557 l 368 478 l 61 122 z "},"ź":{"ha":725,"x_min":0,"x_max":0,"o":"m 354 1031 l 257 794 l 399 794 l 538 1031 z m 61 0 l 671 0 l 671 140 l 400 140 l 272 138 l 351 218 l 658 572 l 658 694 l 64 694 l 64 554 l 332 554 l 447 557 l 368 478 l 61 122 z "},"ž":{"ha":725,"x_min":0,"x_max":0,"o":"m 596 1031 l 450 1031 l 347 899 l 244 1031 l 99 1031 l 251 794 l 443 794 z m 61 0 l 671 0 l 671 140 l 400 140 l 272 138 l 351 218 l 658 572 l 658 694 l 64 694 l 64 554 l 332 554 l 447 557 l 368 478 l 61 122 z "},"ż":{"ha":725,"x_min":0,"x_max":0,"o":"m 350 1000 b 239 899 279 1000 239 963 b 350 797 239 835 279 797 b 463 899 422 797 463 835 b 350 1000 463 963 422 1000 z m 61 0 l 671 0 l 671 140 l 400 140 l 272 138 l 351 218 l 658 572 l 658 694 l 64 694 l 64 554 l 332 554 l 447 557 l 368 478 l 61 122 z "},"ﬁ":{"ha":957,"x_min":0,"x_max":0,"o":"m 451 871 b 531 850 486 871 510 864 l 557 976 b 413 1013 528 999 475 1013 b 150 778 257 1013 150 935 l 150 694 l 29 694 l 29 553 l 150 553 l 150 0 l 340 0 l 340 553 l 551 553 l 551 694 l 332 694 l 332 764 b 451 871 332 840 376 871 z m 761 794 b 879 896 840 794 879 828 b 761 999 879 964 840 999 b 643 896 682 999 643 964 b 761 794 643 828 682 794 z m 665 0 l 856 0 l 856 694 l 665 694 z "},"ﬂ":{"ha":1008,"x_min":0,"x_max":0,"o":"m 451 871 b 531 850 486 871 510 864 l 557 976 b 413 1013 528 999 475 1013 b 150 778 257 1013 150 935 l 150 694 l 29 694 l 29 553 l 150 553 l 150 0 l 340 0 l 340 553 l 551 553 l 551 694 l 332 694 l 332 764 b 451 871 332 840 376 871 z m 921 132 b 853 221 869 132 853 156 l 853 999 l 663 999 l 663 193 b 857 -14 663 49 722 -14 b 986 15 903 -14 956 -3 l 1003 147 b 921 132 972 136 953 132 z "},"ª":{"ha":581,"x_min":0,"x_max":0,"o":"m 518 528 b 479 569 496 528 479 539 l 479 742 b 260 921 479 861 406 921 b 38 779 129 921 54 865 l 151 743 b 253 818 168 801 206 818 b 333 743 304 818 333 790 l 333 725 l 215 703 b 31 551 85 678 31 631 b 183 436 31 476 86 436 b 358 510 267 436 328 465 b 469 436 371 461 413 436 b 538 451 497 436 519 442 l 549 532 b 518 528 542 529 532 528 z m 235 529 b 172 574 196 529 172 542 b 260 640 172 610 201 628 l 333 657 l 333 606 b 235 529 333 556 282 529 z m 43 235 l 528 235 l 528 340 l 43 340 z "},"º":{"ha":556,"x_min":0,"x_max":0,"o":"m 278 436 b 517 678 431 436 517 526 b 278 921 517 831 431 921 b 38 678 125 921 38 831 b 278 436 38 526 125 436 z m 278 536 b 185 678 214 536 185 583 b 278 822 185 774 214 822 b 371 678 342 822 371 774 b 278 536 371 583 342 536 z m 50 235 l 506 235 l 506 340 l 50 340 z "},"π":{"ha":1068,"x_min":0,"x_max":0,"o":"m 1019 557 l 1019 694 l 35 694 l 35 557 l 211 557 l 211 0 l 401 0 l 401 557 l 636 557 l 636 194 b 944 -3 636 47 708 -14 l 967 133 b 826 231 868 128 826 157 l 826 557 z "},"⁄":{"ha":358,"x_min":0,"x_max":0,"o":"m -225 0 l -79 0 l 582 917 l 438 917 z "},"½":{"ha":1274,"x_min":0,"x_max":0,"o":"m 178 690 l 178 372 l 322 372 l 322 924 l 199 924 b 22 831 168 883 78 839 l 22 711 b 182 783 79 717 136 746 b 178 690 179 747 178 714 z m 822 917 l 160 0 l 306 0 l 967 917 z m 1090 108 b 976 104 1056 108 1001 106 l 976 106 b 1071 157 1011 121 1043 138 b 1231 374 1179 231 1231 300 b 1003 553 1231 463 1164 553 b 771 365 865 553 775 485 l 907 325 b 999 440 908 399 940 440 b 1079 363 1051 440 1079 408 b 914 167 1079 307 1036 256 b 789 88 874 139 832 114 l 789 -6 l 1239 -6 l 1239 108 z "},"¼":{"ha":1179,"x_min":0,"x_max":0,"o":"m 178 690 l 178 372 l 322 372 l 322 924 l 199 924 b 22 831 168 883 78 839 l 22 711 b 182 783 79 717 136 746 b 178 690 179 747 178 714 z m 822 917 l 160 0 l 306 0 l 967 917 z m 1067 217 l 1067 546 l 899 546 l 664 188 l 664 119 l 942 119 l 942 -6 l 1067 -6 l 1067 119 l 1156 119 l 1156 217 z m 942 343 l 942 217 l 792 217 l 899 372 b 942 453 914 396 932 429 l 946 453 b 942 343 944 418 942 379 z "},"¾":{"ha":1313,"x_min":0,"x_max":0,"o":"m 257 931 b 35 786 146 931 56 886 l 165 743 b 250 818 172 794 204 818 b 324 751 297 818 324 796 b 246 685 324 710 297 685 l 219 685 l 219 603 l 251 603 b 335 543 307 603 335 583 b 251 472 335 499 303 472 b 156 554 194 472 161 497 l 19 501 b 260 364 53 404 133 364 b 479 525 392 364 479 428 b 354 646 479 604 424 646 l 354 650 b 468 776 414 654 468 699 b 257 931 468 872 393 931 z m 293 0 l 439 0 l 1100 917 l 956 917 z m 1288 217 l 1199 217 l 1199 546 l 1031 546 l 796 188 l 796 119 l 1074 119 l 1074 -6 l 1199 -6 l 1199 119 l 1288 119 z m 924 217 l 1031 372 b 1074 453 1046 396 1064 429 l 1078 453 b 1074 343 1076 418 1074 379 l 1074 217 z "},"➀":{"ha":1264,"x_min":0,"x_max":0,"o":"m 632 972 b 107 458 318 972 107 765 b 632 -56 107 151 318 -56 b 1157 458 946 -56 1157 151 b 632 972 1157 765 946 972 z m 632 44 b 218 458 386 44 218 211 b 632 872 218 706 386 872 b 1046 458 878 872 1046 706 b 632 44 1046 211 878 44 z m 439 647 l 439 528 b 599 600 496 533 553 563 b 594 507 596 564 594 531 l 594 189 l 739 189 l 739 740 l 615 740 b 439 647 585 700 494 656 z "},"➁":{"ha":1264,"x_min":0,"x_max":0,"o":"m 632 -56 b 1157 458 946 -56 1157 151 b 632 972 1157 765 946 972 b 107 458 318 972 107 765 b 632 -56 107 151 318 -56 z m 632 44 b 218 458 386 44 218 211 b 632 872 218 706 386 872 b 1046 458 878 872 1046 706 b 632 44 1046 211 878 44 z m 411 203 l 861 203 l 861 317 l 713 317 b 599 313 678 317 624 314 l 599 314 b 693 365 633 329 665 346 b 853 582 801 439 853 508 b 625 761 853 671 786 761 b 393 574 488 761 397 693 l 529 533 b 621 649 531 607 563 649 b 701 571 674 649 701 617 b 536 375 701 515 658 464 b 411 296 496 347 454 322 z "},"➂":{"ha":1264,"x_min":0,"x_max":0,"o":"m 632 -56 b 1157 458 946 -56 1157 151 b 632 972 1157 765 946 972 b 107 458 318 972 107 765 b 632 -56 107 151 318 -56 z m 632 44 b 218 458 386 44 218 211 b 632 872 218 706 386 872 b 1046 458 878 872 1046 706 b 632 44 1046 211 878 44 z m 639 743 b 417 599 528 743 438 699 l 547 556 b 632 631 554 607 586 631 b 706 564 679 631 706 608 b 628 497 706 522 679 497 l 601 497 l 601 415 l 633 415 b 717 356 689 415 717 396 b 633 285 717 311 685 285 b 538 367 576 285 543 310 l 403 314 b 642 176 435 217 515 176 b 861 338 774 176 861 240 b 736 458 861 417 806 458 l 736 463 b 850 589 796 467 850 511 b 639 743 850 685 775 743 z "},"➃":{"ha":1264,"x_min":0,"x_max":0,"o":"m 632 -56 b 1157 458 946 -56 1157 151 b 632 972 1157 765 946 972 b 107 458 318 972 107 765 b 632 -56 107 151 318 -56 z m 632 44 b 218 458 386 44 218 211 b 632 872 218 706 386 872 b 1046 458 878 872 1046 706 b 632 44 1046 211 878 44 z m 844 411 l 756 411 l 756 740 l 588 740 l 353 382 l 353 314 l 631 314 l 631 189 l 756 189 l 756 314 l 844 314 z m 481 411 l 588 567 b 631 647 603 590 621 624 l 635 647 b 631 538 633 613 631 574 l 631 411 z "},"➄":{"ha":1264,"x_min":0,"x_max":0,"o":"m 632 -56 b 1157 458 946 -56 1157 151 b 632 972 1157 765 946 972 b 107 458 318 972 107 765 b 632 -56 107 151 318 -56 z m 632 44 b 218 458 386 44 218 211 b 632 872 218 706 386 872 b 1046 458 878 872 1046 706 b 632 44 1046 211 878 44 z m 675 531 b 547 493 601 531 568 517 l 546 493 b 553 529 549 503 551 513 l 561 618 l 831 618 l 831 728 l 453 728 l 422 404 l 538 396 b 631 436 556 422 582 436 b 718 358 689 436 718 408 b 628 276 718 308 682 276 b 529 344 569 276 540 301 l 399 283 b 631 169 444 197 522 169 b 856 361 758 169 856 231 b 675 531 856 461 792 531 z "},"➅":{"ha":1264,"x_min":0,"x_max":0,"o":"m 632 -56 b 1157 458 946 -56 1157 151 b 632 972 1157 765 946 972 b 107 458 318 972 107 765 b 632 -56 107 151 318 -56 z m 632 44 b 218 458 386 44 218 211 b 632 872 218 706 386 872 b 1046 458 878 872 1046 706 b 632 44 1046 211 878 44 z m 629 175 b 854 353 772 175 854 240 b 668 528 854 468 776 528 b 522 457 600 528 556 506 l 521 457 l 521 472 b 643 632 521 560 564 632 b 735 568 694 632 724 606 l 847 624 b 642 742 811 710 742 742 b 382 458 493 742 382 649 b 629 175 382 269 471 175 z m 631 283 b 543 356 576 283 543 310 b 631 428 543 397 576 428 b 719 356 686 428 719 400 b 631 283 719 310 686 283 z "},"➆":{"ha":1264,"x_min":0,"x_max":0,"o":"m 632 972 b 107 458 318 972 107 765 b 632 -56 107 151 318 -56 b 1157 458 946 -56 1157 151 b 632 972 1157 765 946 972 z m 632 44 b 218 458 386 44 218 211 b 632 872 218 706 386 872 b 1046 458 878 872 1046 706 b 632 44 1046 211 878 44 z m 415 603 l 721 603 b 547 167 604 481 547 324 l 692 167 b 867 618 692 338 733 488 l 867 718 l 415 718 z "},"➇":{"ha":1264,"x_min":0,"x_max":0,"o":"m 632 -56 b 1157 458 946 -56 1157 151 b 632 972 1157 765 946 972 b 107 458 318 972 107 765 b 632 -56 107 151 318 -56 z m 632 44 b 218 458 386 44 218 211 b 632 872 218 706 386 872 b 1046 458 878 872 1046 706 b 632 44 1046 211 878 44 z m 632 742 b 413 586 497 742 413 682 b 508 465 413 529 447 483 l 508 464 b 396 336 436 444 396 399 b 632 176 396 236 486 176 b 869 336 779 176 869 236 b 754 464 869 401 828 444 l 754 465 b 851 586 819 486 851 531 b 632 742 851 682 768 742 z m 632 646 b 715 581 685 646 715 622 b 632 514 715 539 683 514 b 550 581 581 514 550 539 b 632 646 550 622 581 646 z m 632 274 b 539 344 574 274 539 300 b 632 415 539 389 575 415 b 726 344 690 415 726 389 b 632 274 726 300 690 274 z "},"➈":{"ha":1264,"x_min":0,"x_max":0,"o":"m 632 -56 b 1157 458 946 -56 1157 151 b 632 972 1157 765 946 972 b 107 458 318 972 107 765 b 632 -56 107 151 318 -56 z m 632 44 b 218 458 386 44 218 211 b 632 872 218 706 386 872 b 1046 458 878 872 1046 706 b 632 44 1046 211 878 44 z m 636 742 b 408 560 496 742 408 676 b 610 386 408 456 486 386 b 743 451 671 386 726 417 l 744 451 b 746 429 746 444 746 438 b 632 285 746 354 717 285 b 542 347 575 285 550 304 l 415 301 b 628 175 444 210 522 175 b 885 458 782 175 885 264 b 636 742 885 644 793 742 z m 642 633 b 729 560 694 633 729 604 b 640 489 729 518 694 489 b 553 560 585 489 553 515 b 642 633 553 607 585 633 z "},"₀":{"ha":565,"x_min":0,"x_max":0,"o":"m 282 -271 b 526 13 446 -271 526 -176 b 282 296 526 201 446 296 b 39 13 119 296 39 201 b 282 -271 39 -176 119 -271 z m 282 -164 b 182 13 213 -164 182 -111 b 282 189 182 136 213 189 b 382 13 353 189 382 136 b 282 -164 382 -111 353 -164 z "},"₁":{"ha":385,"x_min":0,"x_max":0,"o":"m 199 289 b 22 196 168 249 78 204 l 22 76 b 182 149 79 82 136 111 b 178 56 179 113 178 79 l 178 -262 l 322 -262 l 322 289 z "},"₂":{"ha":531,"x_min":0,"x_max":0,"o":"m 46 -262 l 496 -262 l 496 -149 l 347 -149 b 233 -153 313 -149 258 -151 l 233 -151 b 328 -100 268 -136 300 -119 b 488 117 436 -26 488 43 b 260 296 488 206 421 296 b 28 108 122 296 32 228 l 164 68 b 256 183 165 142 197 183 b 336 106 308 183 336 151 b 171 -90 336 50 293 -1 b 46 -169 131 -118 89 -143 z "},"₃":{"ha":518,"x_min":0,"x_max":0,"o":"m 257 296 b 35 151 146 296 56 251 l 165 108 b 250 183 172 160 204 183 b 324 117 297 183 324 161 b 246 50 324 75 297 50 l 219 50 l 219 -32 l 251 -32 b 335 -92 307 -32 335 -51 b 251 -162 335 -136 303 -162 b 156 -81 194 -162 161 -137 l 19 -133 b 260 -271 53 -231 133 -271 b 479 -110 392 -271 479 -207 b 354 11 479 -31 424 11 l 354 15 b 468 142 414 19 468 64 b 257 296 468 238 393 296 z "},"₄":{"ha":531,"x_min":0,"x_max":0,"o":"m 506 -40 l 417 -40 l 417 289 l 249 289 l 14 -69 l 14 -137 l 292 -137 l 292 -262 l 417 -262 l 417 -137 l 506 -137 z m 142 -40 l 249 115 b 292 196 264 139 282 172 l 296 196 b 292 86 294 161 292 122 l 292 -40 z "},"₅":{"ha":522,"x_min":0,"x_max":0,"o":"m 301 92 b 174 54 228 92 194 78 l 172 54 b 179 90 175 64 178 74 l 188 179 l 457 179 l 457 289 l 79 289 l 49 -35 l 164 -43 b 257 -3 182 -17 208 -3 b 344 -81 315 -3 344 -31 b 254 -162 344 -131 308 -162 b 156 -94 196 -162 167 -137 l 25 -156 b 257 -269 71 -242 149 -269 b 482 -78 385 -269 482 -208 b 301 92 482 22 418 92 z "},"₆":{"ha":549,"x_min":0,"x_max":0,"o":"m 289 -271 b 514 -93 432 -271 514 -206 b 328 82 514 22 436 82 b 182 11 260 82 215 60 l 181 11 l 181 26 b 303 186 181 114 224 186 b 394 122 354 186 383 160 l 507 178 b 301 296 471 264 401 296 b 42 13 153 296 42 203 b 289 -271 42 -176 131 -271 z m 290 -162 b 203 -90 236 -162 203 -136 b 290 -18 203 -49 236 -18 b 379 -90 346 -18 379 -46 b 290 -162 379 -136 346 -162 z "},"₇":{"ha":471,"x_min":0,"x_max":0,"o":"m 10 289 l 10 174 l 315 174 b 142 -262 199 51 142 -106 l 286 -262 b 461 189 286 -92 328 58 l 461 289 z "},"₈":{"ha":563,"x_min":0,"x_max":0,"o":"m 281 294 b 61 139 146 294 61 235 b 157 18 61 82 96 36 l 157 17 b 44 -111 85 -3 44 -49 b 281 -271 44 -211 135 -271 b 518 -111 428 -271 518 -211 b 403 17 518 -46 476 -3 l 403 18 b 500 139 468 39 500 83 b 281 294 500 235 417 294 z m 281 199 b 364 133 333 199 364 175 b 281 67 364 92 332 67 b 199 133 229 67 199 92 b 281 199 199 175 229 199 z m 281 -174 b 188 -103 222 -174 188 -147 b 281 -32 188 -58 224 -32 b 375 -103 339 -32 375 -58 b 281 -174 375 -147 339 -174 z "},"₉":{"ha":556,"x_min":0,"x_max":0,"o":"m 265 296 b 38 114 125 296 38 231 b 239 -60 38 10 115 -60 b 372 6 300 -60 356 -29 l 374 6 b 375 -17 375 -1 375 -8 b 261 -161 375 -92 346 -161 b 171 -99 204 -161 179 -142 l 44 -144 b 257 -271 74 -236 151 -271 b 514 13 411 -271 514 -182 b 265 296 514 199 422 296 z m 271 188 b 358 114 324 188 358 158 b 269 43 358 72 324 43 b 182 114 214 43 182 69 b 271 188 182 161 214 188 z "},"⁰":{"ha":565,"x_min":0,"x_max":0,"o":"m 282 454 b 526 738 446 454 526 549 b 282 1021 526 926 446 1021 b 39 738 119 1021 39 926 b 282 454 39 549 119 454 z m 282 561 b 182 738 213 561 182 614 b 282 914 182 861 213 914 b 382 738 353 914 382 861 b 282 561 382 614 353 561 z "},"¹":{"ha":385,"x_min":0,"x_max":0,"o":"m 199 1014 b 22 921 168 974 78 929 l 22 801 b 182 874 79 807 136 836 b 178 781 179 838 178 804 l 178 463 l 322 463 l 322 1014 z "},"²":{"ha":531,"x_min":0,"x_max":0,"o":"m 46 463 l 496 463 l 496 576 l 347 576 b 233 572 313 576 258 574 l 233 574 b 328 625 268 589 300 606 b 488 842 436 699 488 768 b 260 1021 488 931 421 1021 b 28 833 122 1021 32 953 l 164 793 b 256 908 165 867 197 908 b 336 831 308 908 336 876 b 171 635 336 775 293 724 b 46 556 131 607 89 582 z "},"³":{"ha":518,"x_min":0,"x_max":0,"o":"m 257 1021 b 35 876 146 1021 56 976 l 165 833 b 250 908 172 885 204 908 b 324 842 297 908 324 886 b 246 775 324 800 297 775 l 219 775 l 219 693 l 251 693 b 335 633 307 693 335 674 b 251 563 335 589 303 563 b 156 644 194 563 161 588 l 21 592 b 260 454 53 494 133 454 b 479 615 392 454 479 518 b 354 736 479 694 424 736 l 354 740 b 468 867 414 744 468 789 b 257 1021 468 963 393 1021 z "},"⁴":{"ha":531,"x_min":0,"x_max":0,"o":"m 506 685 l 417 685 l 417 1014 l 249 1014 l 14 656 l 14 588 l 292 588 l 292 463 l 417 463 l 417 588 l 506 588 z m 142 685 l 249 840 b 292 921 264 864 282 897 l 296 921 b 292 811 294 886 292 847 l 292 685 z "},"⁵":{"ha":522,"x_min":0,"x_max":0,"o":"m 301 817 b 174 779 228 817 194 803 l 172 779 b 179 815 175 789 178 799 l 188 904 l 457 904 l 457 1014 l 79 1014 l 49 690 l 164 682 b 257 722 182 708 208 722 b 344 644 315 722 344 694 b 254 563 344 594 308 563 b 156 631 196 563 167 588 l 25 569 b 257 456 71 483 149 456 b 482 647 385 456 482 517 b 301 817 482 747 418 817 z "},"⁶":{"ha":549,"x_min":0,"x_max":0,"o":"m 289 454 b 514 632 432 454 514 519 b 328 807 514 747 436 807 b 182 736 260 807 215 785 l 181 736 l 181 751 b 303 911 181 839 224 911 b 394 847 354 911 383 885 l 507 903 b 301 1021 471 989 401 1021 b 42 738 153 1021 42 928 b 289 454 42 549 131 454 z m 290 563 b 203 635 236 563 203 589 b 290 707 203 676 236 707 b 379 635 346 707 379 679 b 290 563 379 589 346 563 z "},"⁷":{"ha":471,"x_min":0,"x_max":0,"o":"m 10 1014 l 10 899 l 315 899 b 142 463 199 776 142 619 l 286 463 b 461 914 286 633 328 783 l 461 1014 z "},"⁸":{"ha":563,"x_min":0,"x_max":0,"o":"m 281 1019 b 61 864 146 1019 61 960 b 157 743 61 807 96 761 l 157 742 b 44 614 85 722 44 676 b 281 454 44 514 135 454 b 518 614 428 454 518 514 b 403 742 518 679 476 722 l 403 743 b 500 864 468 764 500 808 b 281 1019 500 960 417 1019 z m 281 924 b 364 858 333 924 364 900 b 281 792 364 817 332 792 b 199 858 229 792 199 817 b 281 924 199 900 229 924 z m 281 551 b 188 622 222 551 188 578 b 281 693 188 667 224 693 b 375 622 339 693 375 667 b 281 551 375 578 339 551 z "},"⁹":{"ha":556,"x_min":0,"x_max":0,"o":"m 265 1021 b 38 839 125 1021 38 956 b 239 665 38 735 115 665 b 372 731 300 665 356 696 l 374 731 b 375 708 375 724 375 717 b 261 564 375 633 346 564 b 171 626 204 564 179 583 l 44 581 b 257 454 74 489 151 454 b 514 738 411 454 514 543 b 265 1021 514 924 422 1021 z m 271 913 b 358 839 324 913 358 883 b 269 768 358 797 324 768 b 182 839 214 768 182 794 b 271 913 182 886 214 913 z "},"*":{"ha":808,"x_min":0,"x_max":0,"o":"m 490 647 l 574 660 l 747 714 l 706 846 l 532 788 l 457 747 l 471 832 l 474 1014 l 333 1014 l 338 832 l 351 747 l 276 788 l 103 846 l 61 714 l 235 660 l 318 647 l 258 588 l 149 442 l 261 360 l 367 508 l 404 585 l 442 508 l 547 360 l 660 442 l 551 588 z "},"\\":{"ha":635,"x_min":0,"x_max":0,"o":"m 28 999 l 431 -97 l 607 -97 l 206 999 z "},"·":{"ha":356,"x_min":0,"x_max":0,"o":"m 178 604 b 57 492 103 604 57 561 b 178 379 57 422 103 379 b 299 492 253 379 299 422 b 178 604 299 561 253 604 z "},"•":{"ha":597,"x_min":0,"x_max":0,"o":"m 299 657 b 100 464 179 657 100 581 b 299 272 100 349 179 272 b 497 464 419 272 497 349 b 299 657 497 581 419 657 z "},":":{"ha":417,"x_min":0,"x_max":0,"o":"m 208 708 b 88 596 133 708 88 665 b 208 483 88 526 133 483 b 329 596 283 483 329 526 b 208 708 329 665 283 708 z m 208 213 b 88 100 133 213 88 169 b 208 -12 88 31 133 -12 b 329 100 283 -12 329 31 b 208 213 329 169 283 213 z "},",":{"ha":390,"x_min":0,"x_max":0,"o":"m 193 213 b 72 96 122 213 72 168 b 174 -11 72 22 126 -11 b 214 3 193 -11 206 -6 l 219 -1 b 61 -147 200 -65 142 -117 l 149 -214 b 326 50 268 -160 326 -58 b 193 213 326 142 281 213 z "},"…":{"ha":1244,"x_min":0,"x_max":0,"o":"m 203 213 b 82 100 128 213 82 169 b 203 -12 82 31 128 -12 b 324 100 278 -12 324 31 b 203 213 324 169 278 213 z m 622 213 b 501 100 547 213 501 169 b 622 -12 501 31 547 -12 b 743 100 697 -12 743 31 b 622 213 743 169 697 213 z m 1042 213 b 921 100 968 213 921 169 b 1042 -12 921 31 968 -12 b 1163 100 1117 -12 1163 31 b 1042 213 1163 169 1117 213 z "},"!":{"ha":404,"x_min":0,"x_max":0,"o":"m 301 917 l 101 917 l 101 583 l 125 296 l 278 296 l 301 583 z m 201 201 b 83 94 129 201 83 160 b 201 -12 83 29 129 -12 b 319 94 274 -12 319 29 b 201 201 319 160 274 201 z "},"¡":{"ha":397,"x_min":0,"x_max":0,"o":"m 199 493 b 317 600 271 493 317 535 b 199 707 317 665 271 707 b 81 600 126 707 81 665 b 199 493 81 535 126 493 z m 99 -222 l 299 -222 l 299 111 l 275 399 l 122 399 l 99 111 z "},"#":{"ha":932,"x_min":0,"x_max":0,"o":"m 897 564 l 897 685 l 733 685 l 771 917 l 635 917 l 596 685 l 399 685 l 436 917 l 299 917 l 261 685 l 93 685 l 93 564 l 242 564 l 208 357 l 33 357 l 33 236 l 188 236 l 150 0 l 286 0 l 325 236 l 524 236 l 485 0 l 621 0 l 660 236 l 838 236 l 838 357 l 679 357 l 713 564 z m 543 357 l 344 357 l 378 564 l 576 564 z "},".":{"ha":390,"x_min":0,"x_max":0,"o":"m 196 213 b 75 100 121 213 75 169 b 196 -12 75 31 121 -12 b 317 100 269 -12 317 31 b 196 213 317 169 269 213 z "},"?":{"ha":810,"x_min":0,"x_max":0,"o":"m 410 931 b 49 689 186 931 72 829 l 229 614 b 397 771 238 715 301 771 b 543 657 496 771 543 726 b 297 504 543 571 476 524 l 306 294 l 475 294 l 485 425 b 747 685 632 440 747 514 b 410 931 747 849 607 931 z m 390 204 b 272 96 317 204 272 163 b 390 -12 272 29 317 -12 b 510 96 464 -12 510 29 b 390 204 510 163 464 204 z "},"¿":{"ha":806,"x_min":0,"x_max":0,"o":"m 418 490 b 536 599 492 490 536 532 b 418 707 536 665 492 707 b 299 599 344 707 299 665 b 418 490 299 532 344 490 z m 399 -236 b 760 6 621 -236 736 -133 l 579 82 b 411 -76 569 -19 507 -76 b 264 38 311 -76 264 -32 b 511 190 264 124 331 172 l 503 401 l 332 401 l 324 271 b 60 11 175 256 60 182 b 399 -236 60 -154 200 -236 z "},"\"":{"ha":599,"x_min":0,"x_max":0,"o":"m 267 947 l 97 947 l 97 578 l 228 578 z m 528 947 l 357 947 l 357 578 l 488 578 z "},"'":{"ha":339,"x_min":0,"x_max":0,"o":"m 267 947 l 97 947 l 97 578 l 228 578 z "},";":{"ha":417,"x_min":0,"x_max":0,"o":"m 213 483 b 333 596 288 483 333 526 b 213 708 333 665 288 708 b 92 596 138 708 92 665 b 213 483 92 526 138 483 z m 207 213 b 86 96 138 213 86 168 b 188 -11 86 22 140 -11 b 229 3 208 -11 219 -6 l 235 -1 b 75 -147 215 -65 157 -117 l 163 -214 b 340 50 283 -160 340 -58 b 207 213 340 142 296 213 z "},"/":{"ha":635,"x_min":0,"x_max":0,"o":"m 607 999 l 429 999 l 28 -97 l 204 -97 z "},"_":{"ha":749,"x_min":0,"x_max":0,"o":"m 749 -107 l 0 -107 l 0 -264 l 749 -264 z "},"₍":{"ha":340,"x_min":0,"x_max":0,"o":"m 268 408 b 85 13 149 315 85 183 b 268 -383 85 -158 149 -290 l 346 -317 b 219 13 254 -229 219 -137 b 346 342 219 163 254 254 z "},"₎":{"ha":340,"x_min":0,"x_max":0,"o":"m 72 408 l -6 342 b 121 13 86 254 121 163 b -6 -317 121 -137 86 -229 l 72 -383 b 256 13 192 -290 256 -158 b 72 408 256 183 192 315 z "},"{":{"ha":549,"x_min":0,"x_max":0,"o":"m 364 -37 l 364 207 b 217 382 364 303 313 357 b 364 558 313 408 364 463 l 364 803 b 506 901 364 872 406 901 l 494 1031 b 206 818 285 1031 206 965 l 206 593 b 50 449 206 489 163 449 l 50 317 b 206 172 163 317 206 276 l 206 -51 b 494 -265 206 -200 285 -265 l 506 -136 b 364 -37 406 -136 364 -107 z "},"}":{"ha":549,"x_min":0,"x_max":0,"o":"m 342 593 l 342 818 b 53 1031 342 965 264 1031 l 42 901 b 185 803 143 901 185 872 l 185 558 b 332 383 185 463 236 408 b 185 207 236 357 185 303 l 185 -37 b 42 -136 185 -107 143 -136 l 53 -265 b 342 -51 264 -265 342 -200 l 342 172 b 497 317 342 276 385 317 l 497 449 b 342 593 385 449 342 489 z "},"[":{"ha":521,"x_min":0,"x_max":0,"o":"m 482 858 l 482 999 l 119 999 l 119 -233 l 482 -233 l 482 -93 l 286 -93 l 286 858 z "},"]":{"ha":521,"x_min":0,"x_max":0,"o":"m 403 999 l 39 999 l 39 858 l 235 858 l 235 -93 l 39 -93 l 39 -233 l 403 -233 z "},"(":{"ha":522,"x_min":0,"x_max":0,"o":"m 404 1031 b 90 383 199 878 90 660 b 404 -265 90 106 199 -112 l 499 -172 b 267 383 332 -21 267 135 b 499 938 267 631 332 786 z "},")":{"ha":522,"x_min":0,"x_max":0,"o":"m 118 1031 l 24 938 b 256 383 190 786 256 631 b 24 -172 256 135 190 -21 l 118 -265 b 432 383 324 -112 432 106 b 118 1031 432 660 324 878 z "},"⁽":{"ha":340,"x_min":0,"x_max":0,"o":"m 268 1133 b 85 738 149 1040 85 908 b 268 342 85 567 149 435 l 346 408 b 219 738 254 497 219 588 b 346 1067 219 888 254 979 z "},"⁾":{"ha":340,"x_min":0,"x_max":0,"o":"m 72 1133 l -6 1067 b 122 738 86 979 122 888 b -6 408 122 588 86 497 l 72 342 b 256 738 193 435 256 567 b 72 1133 256 908 193 1040 z "},"—":{"ha":1401,"x_min":0,"x_max":0,"o":"m 1290 447 l 110 447 l 110 290 l 1290 290 z "},"–":{"ha":946,"x_min":0,"x_max":0,"o":"m 836 447 l 110 447 l 110 290 l 836 290 z "},"-":{"ha":724,"x_min":0,"x_max":0,"o":"m 607 450 l 117 450 l 117 286 l 607 286 z "},"­":{"ha":724,"x_min":0,"x_max":0,"o":"m 607 450 l 117 450 l 117 286 l 607 286 z "},"«":{"ha":767,"x_min":0,"x_max":0,"o":"m 406 640 l 231 640 l 57 368 l 231 96 l 406 96 l 233 368 z m 708 640 l 535 640 l 360 368 l 535 96 l 708 96 l 538 368 z "},"»":{"ha":765,"x_min":0,"x_max":0,"o":"m 57 640 l 228 368 l 57 96 l 231 96 l 406 368 l 231 640 z m 360 640 l 532 368 l 360 96 l 535 96 l 708 368 l 535 640 z "},"‹":{"ha":463,"x_min":0,"x_max":0,"o":"m 406 640 l 231 640 l 57 368 l 231 96 l 406 96 l 233 368 z "},"›":{"ha":463,"x_min":0,"x_max":0,"o":"m 57 640 l 229 368 l 57 96 l 232 96 l 406 368 l 232 640 z "},"„":{"ha":697,"x_min":0,"x_max":0,"o":"m 190 213 b 69 96 121 213 69 168 b 171 -11 69 22 124 -11 b 213 3 192 -11 203 -6 l 218 -1 b 58 -147 199 -65 140 -117 l 146 -214 b 324 50 267 -160 324 -58 b 190 213 324 142 279 213 z m 499 213 b 376 96 428 213 376 168 b 478 -11 376 22 431 -11 b 519 3 499 -11 510 -6 l 525 -1 b 367 -147 506 -65 447 -117 l 453 -214 b 631 50 574 -160 631 -58 b 499 213 631 142 586 213 z "},"“":{"ha":700,"x_min":0,"x_max":0,"o":"m 196 539 b 317 656 267 539 317 583 b 215 763 317 729 263 763 b 175 749 196 763 183 757 l 169 753 b 328 899 189 817 247 868 l 240 965 b 63 701 121 911 63 810 b 196 539 63 610 108 539 z m 507 539 b 628 656 578 539 628 583 b 526 763 628 729 574 763 b 486 749 507 763 494 757 l 481 753 b 639 899 500 817 558 868 l 551 965 b 374 701 432 911 374 810 b 507 539 374 610 419 539 z "},"”":{"ha":696,"x_min":0,"x_max":0,"o":"m 199 964 b 78 847 128 964 78 919 b 179 740 78 774 132 740 b 219 754 199 740 211 746 l 225 750 b 67 604 206 686 147 635 l 154 538 b 332 801 274 592 332 693 b 199 964 332 893 286 964 z m 507 964 b 386 847 436 964 386 919 b 488 740 386 774 440 740 b 528 754 507 740 519 746 l 533 750 b 375 604 514 686 456 635 l 463 538 b 640 801 582 592 640 693 b 507 964 640 893 594 964 z "},"‘":{"ha":389,"x_min":0,"x_max":0,"o":"m 196 539 b 317 656 267 539 317 585 b 215 763 317 729 263 763 b 175 749 196 763 183 757 l 169 753 b 328 899 189 817 247 869 l 240 965 b 63 701 121 911 63 811 b 196 539 63 610 108 539 z "},"’":{"ha":389,"x_min":0,"x_max":0,"o":"m 199 964 b 78 847 129 964 78 918 b 179 740 78 774 132 740 b 221 754 200 740 211 746 l 226 750 b 67 604 207 686 149 633 l 154 538 b 332 801 275 592 332 692 b 199 964 332 893 288 964 z "},"‚":{"ha":390,"x_min":0,"x_max":0,"o":"m 190 213 b 69 96 121 213 69 168 b 171 -11 69 22 124 -11 b 213 3 192 -11 203 -6 l 218 -1 b 58 -147 199 -65 140 -117 l 146 -214 b 324 50 267 -160 324 -58 b 190 213 324 142 279 213 z "}," ":{"ha":425,"x_min":0,"x_max":0,"o":""},"€":{"ha":974,"x_min":0,"x_max":0,"o":"m 779 288 b 579 128 753 181 671 128 b 360 293 468 128 394 186 l 594 293 l 625 394 l 340 394 b 338 458 339 415 338 436 b 339 492 338 469 338 481 l 649 492 l 682 593 l 353 593 b 585 789 385 719 465 789 b 775 646 675 789 753 743 l 922 714 b 572 931 876 853 743 931 b 172 593 357 931 213 806 l 53 593 l 53 492 l 160 492 l 160 458 b 163 394 160 436 160 415 l 53 394 l 53 293 l 178 293 b 575 -14 226 99 367 -14 b 932 239 744 -14 886 74 z "},"¢":{"ha":794,"x_min":0,"x_max":0,"o":"m 746 197 l 600 247 b 482 118 583 176 543 133 l 482 575 b 592 444 538 558 576 515 l 743 504 b 482 706 717 608 640 692 l 482 833 l 371 833 l 371 706 b 74 347 183 683 74 554 b 371 -10 74 142 181 13 l 371 -139 l 482 -139 l 482 -11 b 746 197 632 1 725 81 z m 243 346 b 371 574 243 476 286 551 l 371 121 b 243 346 289 143 243 214 z "},"¤":{"ha":907,"x_min":0,"x_max":0,"o":"m 749 457 b 710 608 749 514 735 565 l 840 731 l 726 843 l 607 710 b 454 747 563 733 511 747 b 303 711 397 747 346 735 l 179 843 l 68 731 l 199 611 b 158 457 174 568 158 515 b 197 304 158 400 172 349 l 68 183 l 179 71 l 301 204 b 454 167 344 181 397 167 b 604 203 511 167 561 179 l 726 71 l 840 183 l 708 303 b 749 457 735 347 749 399 z m 454 310 b 314 457 372 310 314 369 b 454 604 314 544 372 604 b 593 457 536 604 593 544 b 454 310 593 369 536 310 z "},"$":{"ha":874,"x_min":0,"x_max":0,"o":"m 388 -128 l 507 -128 l 507 3 b 815 261 689 18 815 113 b 507 518 815 443 656 488 l 507 776 b 713 629 601 765 661 721 l 819 739 b 507 914 749 840 664 903 l 507 1044 l 388 1044 l 388 914 b 79 642 192 896 79 785 b 388 392 79 464 239 421 l 388 139 b 158 304 282 156 193 214 l 46 199 b 388 1 111 82 219 14 z m 388 543 b 254 654 313 563 254 589 b 388 775 254 719 300 763 z m 507 139 l 507 365 b 642 251 582 346 642 318 b 507 139 642 183 592 149 z "},"ƒ":{"ha":703,"x_min":0,"x_max":0,"o":"m 589 874 b 675 847 624 874 650 865 l 701 978 b 560 1014 656 1006 624 1014 b 310 782 421 1014 335 933 l 275 571 l 61 571 l 61 431 l 251 431 l 192 74 b 81 -37 181 1 142 -37 b -6 -11 47 -37 19 -29 l -31 -142 b 111 -178 14 -169 47 -178 b 360 53 249 -178 335 -97 l 424 431 l 640 431 l 640 571 l 446 571 l 478 761 b 589 874 490 836 528 874 z "},"£":{"ha":867,"x_min":0,"x_max":0,"o":"m 821 232 l 699 243 b 599 119 700 157 669 119 b 469 160 547 119 508 138 b 489 269 482 194 489 232 b 475 367 489 303 485 335 l 679 367 l 679 488 l 413 488 l 400 504 b 332 660 349 579 332 617 b 475 785 332 736 388 785 b 633 622 564 785 607 733 l 790 697 b 481 931 753 854 650 931 b 164 656 282 931 164 807 b 228 488 164 601 179 556 l 90 488 l 90 367 l 315 367 b 354 232 343 319 354 278 l 354 218 b 226 239 319 231 278 239 b 56 111 126 239 56 188 b 218 -14 56 33 122 -14 b 414 68 301 -14 367 18 b 632 -14 474 28 540 -14 b 821 232 768 -14 836 93 z m 226 69 b 167 113 192 69 167 85 b 226 151 167 136 186 151 b 329 122 264 151 297 139 b 226 69 308 89 275 69 z "},"₺":{"ha":956,"x_min":0,"x_max":0,"o":"m 715 403 b 497 149 715 226 640 149 l 411 149 l 411 417 l 672 490 l 672 575 l 411 501 l 411 617 l 672 692 l 672 775 l 411 701 l 411 917 l 222 917 l 222 649 l 65 604 l 65 519 l 222 564 l 222 447 l 65 403 l 65 319 l 222 364 l 222 0 l 518 0 b 900 403 764 0 893 142 z "},"₽":{"ha":933,"x_min":0,"x_max":0,"o":"m 543 371 b 881 643 760 371 881 468 b 543 917 881 819 760 917 l 179 917 l 179 508 l 57 508 l 57 371 l 179 371 l 179 279 l 57 279 l 57 150 l 179 150 l 179 0 l 367 0 l 367 150 l 617 150 l 617 279 l 367 279 l 367 371 z m 367 767 l 514 767 b 686 638 632 767 686 726 b 514 508 686 549 632 508 l 367 508 z "},"¥":{"ha":913,"x_min":0,"x_max":0,"o":"m 568 414 l 878 917 l 676 917 l 521 613 l 458 471 l 456 471 l 392 611 l 236 917 l 35 917 l 344 414 l 269 419 l 100 419 l 100 336 l 367 336 l 367 240 l 100 240 l 100 161 l 367 161 l 367 0 l 546 0 l 546 161 l 814 161 l 814 240 l 546 240 l 546 336 l 814 336 l 814 419 l 643 419 z "},"≈":{"ha":839,"x_min":0,"x_max":0,"o":"m 264 721 b 81 647 185 721 140 699 l 81 499 b 264 574 136 551 183 574 b 579 483 371 574 463 483 b 758 557 646 483 703 506 l 758 704 b 575 631 693 646 640 631 b 264 721 478 631 388 721 z m 264 413 b 81 340 185 413 140 392 l 81 192 b 264 267 136 244 183 267 b 579 176 371 267 463 176 b 758 250 646 176 703 199 l 758 397 b 575 324 693 338 640 324 b 264 413 478 324 388 413 z "},"~":{"ha":800,"x_min":0,"x_max":0,"o":"m 740 569 l 585 569 b 513 479 576 511 554 479 b 268 574 438 479 394 574 b 60 326 138 574 69 489 l 215 326 b 289 417 224 385 246 417 b 533 322 364 417 404 322 b 740 569 661 322 731 408 z "},"÷":{"ha":839,"x_min":0,"x_max":0,"o":"m 421 843 b 310 736 353 843 310 803 b 421 631 310 671 353 631 b 532 736 489 631 532 671 b 421 843 532 803 489 843 z m 765 519 l 74 519 l 74 375 l 765 375 z m 421 265 b 310 160 353 265 310 225 b 421 53 310 93 353 53 b 532 160 489 53 532 93 b 421 265 532 225 489 265 z "},"=":{"ha":839,"x_min":0,"x_max":0,"o":"m 750 650 l 89 650 l 89 508 l 750 508 z m 750 357 l 89 357 l 89 217 l 750 217 z "},"₌":{"ha":551,"x_min":0,"x_max":0,"o":"m 75 61 l 476 61 l 476 167 l 75 167 z m 75 -139 l 476 -139 l 476 -33 l 75 -33 z "},"⁼":{"ha":551,"x_min":0,"x_max":0,"o":"m 75 786 l 476 786 l 476 892 l 75 892 z m 75 586 l 476 586 l 476 692 l 75 692 z "},">":{"ha":839,"x_min":0,"x_max":0,"o":"m 74 808 l 74 624 l 614 414 l 74 203 l 74 19 l 747 325 l 747 501 z "},"≥":{"ha":839,"x_min":0,"x_max":0,"o":"m 75 899 l 75 729 l 647 553 l 75 375 l 75 207 l 750 443 l 750 661 z m 75 0 l 750 0 l 750 146 l 75 146 z "},"∞":{"ha":1279,"x_min":0,"x_max":0,"o":"m 957 717 b 660 532 875 717 819 704 b 322 717 521 679 428 717 b 71 414 190 717 71 629 b 321 111 71 200 189 111 b 621 299 425 111 471 135 b 943 111 749 165 831 111 b 1208 414 1092 111 1208 200 b 957 717 1208 629 1090 717 z m 950 303 b 743 436 889 304 831 340 b 958 596 874 582 906 596 b 1061 450 1019 596 1061 543 b 950 303 1061 356 1018 301 z m 324 233 b 218 379 267 233 218 282 b 329 525 218 478 268 525 b 535 393 393 525 439 494 b 324 233 406 249 378 233 z "},"∫":{"ha":654,"x_min":0,"x_max":0,"o":"m 486 1053 b 238 818 346 1053 238 974 l 238 71 b 131 -37 238 -7 192 -37 b 38 -8 88 -37 61 -25 l 19 -139 b 169 -178 53 -161 92 -178 b 417 57 310 -178 417 -99 l 417 804 b 524 913 417 882 464 913 b 617 883 568 913 594 900 l 635 1014 b 486 1053 603 1036 564 1053 z "},"<":{"ha":839,"x_min":0,"x_max":0,"o":"m 765 808 l 92 501 l 92 325 l 765 19 l 765 203 l 225 414 l 765 624 z "},"≤":{"ha":839,"x_min":0,"x_max":0,"o":"m 764 899 l 89 661 l 89 443 l 764 207 l 764 375 l 192 553 l 764 729 z m 89 0 l 764 0 l 764 146 l 89 146 z "},"¬":{"ha":839,"x_min":0,"x_max":0,"o":"m 82 519 l 82 375 l 596 375 l 596 153 l 757 153 l 757 519 z "},"−":{"ha":839,"x_min":0,"x_max":0,"o":"m 757 522 l 82 522 l 82 371 l 757 371 z "},"₋":{"ha":485,"x_min":0,"x_max":0,"o":"m 42 -42 l 443 -42 l 443 64 l 42 64 z "},"⁻":{"ha":485,"x_min":0,"x_max":0,"o":"m 42 683 l 443 683 l 443 789 l 42 789 z "},"×":{"ha":839,"x_min":0,"x_max":0,"o":"m 749 671 l 642 779 l 419 557 l 197 779 l 89 671 l 311 449 l 89 226 l 197 118 l 419 340 l 642 118 l 749 226 l 526 449 z "},"≠":{"ha":839,"x_min":0,"x_max":0,"o":"m 757 518 l 757 654 l 590 654 l 665 814 l 531 814 l 456 654 l 82 654 l 82 518 l 392 518 l 311 347 l 82 347 l 82 211 l 247 211 l 175 57 l 310 57 l 382 211 l 757 211 l 757 347 l 446 347 l 526 518 z "},"∂":{"ha":896,"x_min":0,"x_max":0,"o":"m 418 931 b 119 821 292 931 207 894 l 204 696 b 396 775 263 754 317 775 b 632 471 535 775 625 696 b 406 593 586 550 507 593 b 89 290 231 593 89 476 b 415 -14 89 99 233 -14 b 808 468 669 -14 808 139 b 418 931 808 761 681 931 z m 439 138 b 283 294 336 138 283 197 b 436 451 283 392 339 451 b 622 317 540 451 599 390 b 439 138 599 193 533 138 z "},"%":{"ha":1261,"x_min":0,"x_max":0,"o":"m 292 931 b 47 672 144 931 47 828 b 292 414 47 517 144 414 b 536 672 440 414 536 517 b 292 931 536 828 440 931 z m 246 0 l 399 0 l 1017 917 l 864 917 z m 292 799 b 389 672 354 799 389 751 b 292 547 389 593 354 547 b 194 672 229 547 194 593 b 292 799 194 751 229 799 z m 969 503 b 725 244 821 503 725 400 b 969 -14 725 89 821 -14 b 1214 244 1117 -14 1214 89 b 969 503 1214 400 1117 503 z m 969 369 b 1067 244 1032 369 1067 324 b 969 118 1067 165 1032 118 b 872 244 906 118 872 165 b 969 369 872 324 906 369 z "},"‰":{"ha":1826,"x_min":0,"x_max":0,"o":"m 292 931 b 47 672 144 931 47 828 b 292 414 47 517 144 414 b 536 672 440 414 536 517 b 292 931 536 828 440 931 z m 246 0 l 399 0 l 1017 917 l 864 917 z m 292 799 b 389 672 354 799 389 751 b 292 547 389 593 354 547 b 194 672 229 547 194 593 b 292 799 194 751 229 799 z m 969 503 b 725 244 821 503 725 400 b 969 -14 725 89 821 -14 b 1214 244 1117 -14 1214 89 b 969 503 1214 400 1117 503 z m 1535 503 b 1290 244 1386 503 1290 400 b 1535 -14 1290 89 1386 -14 b 1779 244 1682 -14 1779 89 b 1535 503 1779 400 1682 503 z m 969 369 b 1067 244 1032 369 1067 324 b 969 118 1067 165 1032 118 b 872 244 906 118 872 165 b 969 369 872 324 906 369 z m 1535 369 b 1632 244 1597 369 1632 324 b 1535 118 1632 165 1597 118 b 1438 244 1471 118 1438 165 b 1535 369 1438 324 1471 369 z "},"+":{"ha":839,"x_min":0,"x_max":0,"o":"m 764 519 l 499 519 l 499 806 l 342 806 l 342 519 l 75 519 l 75 375 l 342 375 l 342 88 l 499 88 l 499 375 l 764 375 z "},"₊":{"ha":485,"x_min":0,"x_max":0,"o":"m 451 63 l 297 63 l 297 221 l 189 221 l 189 63 l 35 63 l 35 -37 l 189 -37 l 189 -197 l 297 -197 l 297 -37 l 451 -37 z "},"±":{"ha":839,"x_min":0,"x_max":0,"o":"m 493 640 l 493 900 l 347 900 l 347 640 l 75 640 l 75 499 l 347 499 l 347 242 l 493 242 l 493 499 l 764 499 l 764 640 z m 75 0 l 764 0 l 764 139 l 75 139 z "},"⁺":{"ha":485,"x_min":0,"x_max":0,"o":"m 451 788 l 297 788 l 297 946 l 189 946 l 189 788 l 35 788 l 35 688 l 189 688 l 189 528 l 297 528 l 297 688 l 451 688 z "},"∏":{"ha":969,"x_min":0,"x_max":0,"o":"m 865 917 l 104 917 l 104 -178 l 286 -178 l 286 763 l 685 763 l 685 -178 l 865 -178 z "},"√":{"ha":947,"x_min":0,"x_max":0,"o":"m 817 1136 l 497 293 l 446 136 l 399 283 l 267 613 l 24 613 l 24 461 l 165 461 l 350 0 l 539 0 l 983 1136 z "},"∑":{"ha":917,"x_min":0,"x_max":0,"o":"m 833 917 l 79 917 l 79 767 l 482 371 l 79 -33 l 79 -178 l 833 -178 l 833 -33 l 292 -33 l 685 354 l 685 388 l 293 767 l 833 767 z "},"µ":{"ha":854,"x_min":0,"x_max":0,"o":"m 569 694 l 569 285 b 407 136 558 189 499 136 b 286 283 331 136 286 171 l 286 694 l 96 694 l 96 -292 l 286 -292 l 286 -3 b 358 -14 308 -10 332 -14 b 586 124 467 -14 544 32 l 594 0 l 760 0 l 760 694 z "},"Ω":{"ha":1078,"x_min":0,"x_max":0,"o":"m 785 136 b 979 478 908 201 979 319 b 539 931 979 757 811 931 b 99 478 267 931 99 757 b 293 136 99 319 169 201 l 88 136 l 88 0 l 475 0 l 475 136 b 293 456 358 161 293 268 b 539 774 293 660 385 774 b 786 456 693 774 786 660 b 603 136 786 268 719 161 l 603 0 l 990 0 l 990 136 z "},"∆":{"ha":1001,"x_min":0,"x_max":0,"o":"m 601 917 l 400 917 l 56 126 l 56 0 l 946 0 l 946 126 z m 500 799 l 788 140 l 213 140 z "},"∕":{"ha":358,"x_min":0,"x_max":0,"o":"m -225 0 l -79 0 l 582 917 l 438 917 z "},"∙":{"ha":356,"x_min":0,"x_max":0,"o":"m 178 588 b 57 475 103 588 57 544 b 178 363 57 406 103 363 b 299 475 253 363 299 406 b 178 588 299 544 253 588 z "},"↑":{"ha":1042,"x_min":0,"x_max":0,"o":"m 524 925 l 515 925 b 46 515 403 769 267 647 l 150 371 b 442 643 281 457 376 551 b 425 388 431 567 425 482 l 425 0 l 615 0 l 615 388 b 597 643 615 482 608 567 b 889 371 663 551 758 457 l 993 515 b 524 925 774 647 636 769 z "},"↗":{"ha":1042,"x_min":0,"x_max":0,"o":"m 883 835 l 878 840 b 208 840 665 811 425 803 l 199 668 b 628 690 353 653 504 664 b 424 504 563 638 490 572 l 149 228 l 272 106 l 547 381 b 733 583 615 447 681 518 b 713 156 707 460 696 310 l 883 165 b 883 835 846 381 856 622 z "},"→":{"ha":1042,"x_min":0,"x_max":0,"o":"m 589 933 l 444 829 b 717 538 531 699 625 603 b 461 556 640 549 554 556 l 74 556 l 74 365 l 461 365 b 717 382 556 365 640 372 b 444 90 625 317 531 221 l 589 -14 b 999 456 721 207 843 343 l 999 464 b 589 933 843 576 721 714 z "},"↘":{"ha":1042,"x_min":0,"x_max":0,"o":"m 875 799 l 704 808 b 725 381 688 654 699 504 b 539 585 672 446 607 517 l 264 858 l 140 736 l 415 460 b 619 274 483 392 554 325 b 190 296 496 300 344 311 l 200 124 b 869 124 417 161 657 153 l 875 129 b 875 799 847 342 838 583 z "},"↓":{"ha":1042,"x_min":0,"x_max":0,"o":"m 892 546 b 600 275 761 460 665 365 b 618 529 611 350 618 435 l 618 917 l 428 917 l 428 529 b 444 274 428 435 435 350 b 153 546 379 365 283 460 l 49 401 b 518 -8 269 269 406 147 l 526 -8 b 996 401 639 147 776 269 z "},"↙":{"ha":1042,"x_min":0,"x_max":0,"o":"m 422 274 b 628 460 489 325 560 392 l 901 735 l 779 858 l 504 583 b 317 379 436 517 369 444 b 339 808 343 504 354 654 l 167 799 b 167 129 204 582 196 342 l 174 124 b 842 124 386 151 626 161 l 851 296 b 422 274 697 311 547 300 z "},"←":{"ha":1042,"x_min":0,"x_max":0,"o":"m 968 365 l 968 556 l 581 556 b 325 538 488 556 401 549 b 597 829 417 603 511 699 l 453 933 b 43 464 321 714 199 576 l 43 456 b 453 -14 199 343 321 207 l 597 90 b 325 382 511 221 417 317 b 581 365 401 372 486 365 z "},"↖":{"ha":1042,"x_min":0,"x_max":0,"o":"m 618 504 b 414 690 550 572 479 639 b 843 668 538 664 689 653 l 833 840 b 164 840 617 803 376 811 l 158 835 b 158 165 186 622 196 381 l 331 156 b 308 583 346 310 335 460 b 494 381 361 518 426 447 l 769 106 l 893 228 z "},"↔":{"ha":1507,"x_min":0,"x_max":0,"o":"m 1054 958 l 904 864 b 1179 564 993 729 1089 631 b 960 581 1114 574 1040 581 l 546 581 b 328 564 467 581 393 574 b 603 864 418 631 514 729 l 453 958 b 43 489 321 739 199 603 l 43 481 b 453 13 199 368 321 232 l 603 107 b 326 407 514 243 417 340 b 546 390 392 397 465 390 l 960 390 b 1181 407 1040 390 1114 397 b 904 107 1090 340 994 243 l 1054 13 b 1464 481 1186 232 1308 368 l 1464 489 b 1054 958 1308 603 1186 739 z "},"↕":{"ha":1042,"x_min":0,"x_max":0,"o":"m 599 32 b 615 251 608 99 615 171 l 615 665 b 599 885 615 746 608 818 b 899 608 665 793 763 697 l 993 758 b 524 1168 774 892 638 1013 l 515 1168 b 47 758 403 1013 267 892 l 142 608 b 440 885 276 697 375 793 b 425 665 431 818 425 746 l 425 251 b 440 32 425 171 431 99 b 142 308 375 124 276 219 l 47 158 b 515 -251 267 25 403 -96 l 524 -251 b 993 158 638 -96 774 25 l 899 308 b 599 32 763 219 665 124 z "},"●":{"ha":833,"x_min":0,"x_max":0,"o":"m 417 -14 b 778 347 622 -14 778 142 b 417 708 778 553 622 708 b 56 347 211 708 56 553 b 417 -14 56 142 211 -14 z "},"○":{"ha":833,"x_min":0,"x_max":0,"o":"m 417 -14 b 785 347 626 -14 785 142 b 417 708 785 553 626 708 b 49 347 207 708 49 553 b 417 -14 49 142 207 -14 z m 417 125 b 199 347 292 125 199 221 b 417 569 199 474 292 569 b 635 347 542 569 635 474 b 417 125 635 221 542 125 z "},"◆":{"ha":833,"x_min":0,"x_max":0,"o":"m 417 -8 l 785 360 l 417 728 l 49 360 z "},"◇":{"ha":833,"x_min":0,"x_max":0,"o":"m 417 -8 l 785 360 l 417 728 l 49 360 z m 417 172 l 229 360 l 417 547 l 604 360 z "},"◊":{"ha":874,"x_min":0,"x_max":0,"o":"m 538 917 l 336 917 l 65 458 l 336 0 l 538 0 l 808 458 z m 438 111 l 251 458 l 438 806 l 622 458 z "},"▪":{"ha":833,"x_min":0,"x_max":0,"o":"m 69 694 l 69 0 l 764 0 l 764 694 z "},"▫":{"ha":833,"x_min":0,"x_max":0,"o":"m 64 0 l 769 0 l 769 694 l 64 694 z m 211 132 l 211 563 l 622 563 l 622 132 z "},"❛":{"ha":988,"x_min":0,"x_max":0,"o":"m 799 924 b 86 388 279 924 86 706 b 511 -14 86 149 207 -14 b 903 321 754 -14 903 101 b 531 646 903 532 750 646 b 282 572 401 646 342 618 l 272 579 b 869 799 353 715 503 799 z "},"❜":{"ha":988,"x_min":0,"x_max":0,"o":"m 189 -187 b 901 349 708 -187 901 31 b 476 750 901 588 781 750 b 86 415 233 750 86 635 b 457 90 86 204 238 90 b 706 164 586 90 646 118 l 715 157 b 118 -62 635 21 485 -62 z "},"❝":{"ha":1726,"x_min":0,"x_max":0,"o":"m 1268 646 b 1021 572 1140 646 1079 618 l 1011 579 b 1608 799 1092 715 1240 799 l 1538 924 b 838 522 1094 924 889 765 b 531 646 774 603 664 646 b 282 572 401 646 342 618 l 272 579 b 869 799 353 715 503 799 l 799 924 b 86 388 279 924 86 706 b 511 -14 86 149 207 -14 b 872 168 690 -14 817 49 b 1250 -14 932 54 1053 -14 b 1640 321 1493 -14 1640 101 b 1268 646 1640 532 1488 646 z "},"❞":{"ha":1726,"x_min":0,"x_max":0,"o":"m 1215 750 b 854 568 1038 750 910 688 b 476 750 794 682 674 750 b 86 415 233 750 86 635 b 458 90 86 204 239 90 b 706 164 586 90 647 118 l 715 157 b 118 -62 635 21 486 -62 l 189 -187 b 888 214 631 -187 836 -29 b 1196 90 953 133 1063 90 b 1444 164 1324 90 1385 118 l 1453 157 b 857 -62 1374 21 1224 -62 l 926 -187 b 1640 349 1447 -187 1640 31 b 1215 750 1640 588 1519 750 z "},"❡":{"ha":975,"x_min":0,"x_max":0,"o":"m 886 917 l 451 917 b 76 596 218 917 76 786 b 422 281 76 399 232 281 l 482 281 l 482 -4 b 358 -172 482 -106 450 -172 b 229 38 267 -172 199 -101 l 115 10 b 431 -299 74 -176 196 -299 b 886 118 781 -299 886 -87 z m 736 785 l 736 96 b 551 -186 736 -39 686 -149 l 547 -181 b 625 0 596 -153 625 -85 l 625 785 z "},"|":{"ha":406,"x_min":0,"x_max":0,"o":"m 286 999 l 119 999 l 119 -233 l 286 -233 z "},"¦":{"ha":369,"x_min":0,"x_max":0,"o":"m 268 999 l 101 999 l 101 479 l 268 479 z m 268 286 l 101 286 l 101 -233 l 268 -233 z "},"@":{"ha":1333,"x_min":0,"x_max":0,"o":"m 692 917 b 76 310 328 917 76 672 b 646 -261 76 -43 313 -261 b 992 -158 826 -261 913 -214 l 936 -83 b 649 -165 876 -128 804 -165 b 186 310 397 -165 186 6 b 692 821 186 626 385 821 b 1153 361 985 821 1153 649 b 1014 101 1153 188 1097 101 b 938 226 943 101 926 150 l 996 636 l 863 636 l 835 536 b 658 649 817 590 768 649 b 339 271 490 649 339 518 b 568 3 339 108 433 3 b 793 119 669 3 744 44 b 975 -3 818 51 875 -3 b 1253 361 1126 -3 1253 118 b 692 917 1253 693 1054 917 z m 681 521 b 794 371 776 521 806 458 l 781 275 b 626 135 769 181 700 135 b 504 292 547 135 504 193 b 681 521 504 436 578 521 z "},"&":{"ha":886,"x_min":0,"x_max":0,"o":"m 885 122 b 722 183 822 117 782 129 b 811 472 783 261 814 363 l 679 479 b 639 268 683 393 668 325 b 539 382 610 300 578 338 b 461 471 510 417 483 446 b 656 724 607 538 656 621 b 403 931 656 850 560 931 b 147 708 231 931 147 818 b 247 490 147 636 169 585 b 47 231 93 426 46 326 b 358 -14 47 79 175 -14 b 626 79 469 -14 561 21 b 861 -14 717 0 774 -14 z m 406 797 b 500 715 464 797 500 771 b 393 553 500 661 489 614 b 314 704 326 633 314 663 b 406 797 314 757 346 797 z m 213 244 b 324 401 213 300 233 340 b 439 274 356 364 394 322 b 540 163 476 231 510 194 b 371 118 490 133 433 118 b 213 244 282 118 213 169 z "},"¶":{"ha":975,"x_min":0,"x_max":0,"o":"m 871 917 l 424 917 b 51 621 176 917 51 810 b 394 326 51 433 176 328 l 394 -139 l 553 -139 l 553 768 l 714 768 l 714 -139 l 871 -139 z "},"©":{"ha":1097,"x_min":0,"x_max":0,"o":"m 549 931 b 71 458 258 931 71 744 b 549 -14 71 172 258 -14 b 1025 458 838 -14 1025 172 b 549 931 1025 744 838 931 z m 549 824 b 911 458 768 824 911 679 b 549 93 911 238 768 93 b 186 458 328 93 186 238 b 549 824 186 679 328 824 z m 549 719 b 299 457 396 719 299 618 b 549 194 299 296 396 194 b 788 350 679 194 747 246 l 679 400 b 558 326 658 347 619 326 b 438 457 482 326 438 374 b 557 586 438 539 482 586 b 672 517 618 586 651 565 l 786 574 b 549 719 753 663 679 719 z "},"®":{"ha":1097,"x_min":0,"x_max":0,"o":"m 549 931 b 71 458 258 931 71 744 b 549 -14 71 172 258 -14 b 1025 458 838 -14 1025 172 b 549 931 1025 744 838 931 z m 549 93 b 186 458 328 93 186 238 b 549 824 186 679 328 824 b 911 458 768 824 911 679 b 549 93 911 238 768 93 z m 775 549 b 589 715 775 649 697 715 l 357 715 l 357 206 l 481 206 l 481 383 l 539 383 l 642 206 l 788 206 l 660 396 b 775 549 732 418 775 471 z m 481 615 l 567 615 b 650 543 619 615 650 593 b 567 471 650 493 619 471 l 481 471 z "},"§":{"ha":853,"x_min":0,"x_max":0,"o":"m 818 382 b 482 607 818 513 725 581 b 272 714 321 625 272 654 b 436 797 272 765 329 797 b 640 699 539 797 593 764 l 744 794 b 436 931 682 876 601 931 b 121 697 239 931 121 832 b 149 585 121 654 129 617 b 38 389 85 543 38 479 b 374 164 38 258 131 190 b 583 57 535 146 583 115 b 424 -19 583 6 525 -19 b 218 79 321 -19 263 11 l 111 -17 b 425 -153 178 -103 267 -153 b 735 74 617 -153 735 -62 b 707 185 735 117 726 154 b 818 382 771 228 818 290 z m 185 414 b 258 501 185 456 215 482 b 465 457 310 481 378 465 b 671 357 622 440 671 413 b 597 269 671 315 640 289 b 390 314 544 290 476 304 b 185 414 233 331 185 358 z "},"™":{"ha":1156,"x_min":0,"x_max":0,"o":"m 451 917 l 46 917 l 46 824 l 188 824 l 188 458 l 311 458 l 311 824 l 451 824 z m 904 917 l 825 693 l 800 604 l 796 604 l 769 693 l 692 917 l 521 917 l 521 458 l 643 458 l 643 653 l 636 788 l 638 788 l 660 713 l 750 458 l 846 458 l 935 713 l 956 788 l 958 788 l 950 653 l 950 458 l 1072 458 l 1072 917 z "},"°":{"ha":669,"x_min":0,"x_max":0,"o":"m 335 435 b 600 683 494 435 600 535 b 335 931 600 831 494 931 b 71 683 176 931 71 831 b 335 435 71 535 176 435 z m 335 564 b 215 683 265 564 215 614 b 335 803 215 753 265 803 b 456 683 406 803 456 753 b 335 564 456 614 406 564 z "},"℮":{"ha":1092,"x_min":0,"x_max":0,"o":"m 551 931 b 79 458 265 931 79 744 b 579 -14 79 172 265 -14 b 978 182 754 -14 899 49 l 978 303 b 578 74 876 138 742 74 b 274 190 449 74 343 115 l 274 414 l 1018 414 b 551 931 1021 753 846 931 z m 551 843 b 828 732 674 843 765 803 l 828 504 l 274 504 l 274 728 b 551 843 336 801 428 843 z "},"ℓ":{"ha":599,"x_min":0,"x_max":0,"o":"m 415 118 b 324 215 350 118 324 160 l 324 357 b 526 735 450 454 526 593 b 344 931 526 853 485 931 b 153 711 208 931 153 850 l 153 371 b 57 346 124 361 90 353 l 57 239 b 153 265 90 246 122 254 l 153 193 b 382 -14 153 46 222 -14 b 525 8 439 -14 485 -7 l 535 136 b 415 118 496 124 467 118 z m 375 824 b 424 742 410 824 424 801 b 324 479 424 644 392 551 l 324 731 b 375 824 324 792 336 824 z "},"^":{"ha":824,"x_min":0,"x_max":0,"o":"m 789 493 l 494 1008 l 329 1008 l 35 493 l 208 493 l 413 879 l 615 493 z "},"†":{"ha":785,"x_min":0,"x_max":0,"o":"m 735 636 l 482 636 l 482 917 l 303 917 l 303 636 l 50 636 l 50 486 l 303 486 l 303 -139 l 482 -139 l 482 486 l 735 486 z "},"‡":{"ha":785,"x_min":0,"x_max":0,"o":"m 735 486 l 735 636 l 482 636 l 482 917 l 303 917 l 303 636 l 50 636 l 50 486 l 303 486 l 303 292 l 50 292 l 50 142 l 303 142 l 303 -139 l 482 -139 l 482 142 l 735 142 l 735 292 l 482 292 l 482 486 z "},"":{"ha":1569,"x_min":0,"x_max":0,"o":"m 1446 460 l 1524 494 l 1443 521 l 1518 567 l 1440 585 l 1510 639 l 1411 639 l 1478 707 l 1381 707 l 1431 763 l 1342 757 l 1378 822 l 1290 800 l 1321 883 l 1232 836 l 1243 926 l 1164 863 l 1150 951 l 1090 878 l 1063 958 l 1010 890 l 972 972 l 929 896 l 885 958 l 851 889 l 807 953 l 783 881 l 731 940 l 713 867 l 663 925 l 642 846 l 581 897 l 572 821 l 514 874 l 504 792 l 446 840 l 442 760 l 382 799 l 382 721 l 322 765 l 322 686 l 265 718 l 275 638 l 219 663 l 228 581 b 79 331 228 490 151 375 l 75 331 b 32 288 51 331 32 311 b 74 244 32 264 50 246 b 408 118 143 172 276 124 l 408 67 l 394 67 b 351 32 365 67 351 54 b 394 0 351 10 365 0 l 456 0 b 497 40 483 0 497 14 l 497 104 l 619 104 l 619 67 l 603 67 b 561 32 576 67 561 54 b 603 0 561 10 576 0 l 667 0 b 707 40 693 0 707 14 l 707 104 l 1021 104 l 1021 67 l 1006 67 b 965 32 979 67 965 54 b 1006 0 965 10 979 0 l 1069 0 b 1110 40 1096 0 1110 14 l 1110 107 b 1201 121 1142 110 1172 114 l 1201 67 l 1186 67 b 1146 32 1160 67 1146 54 b 1186 0 1146 10 1160 0 l 1250 0 b 1290 40 1276 0 1290 14 l 1290 153 b 1329 174 1304 158 1317 165 l 1414 179 l 1365 224 l 1457 228 l 1404 275 l 1489 289 l 1431 329 l 1504 357 l 1439 390 l 1514 418 z m 464 356 l 451 374 b 500 464 499 389 515 422 b 403 474 486 501 440 508 l 392 496 b 529 475 436 539 508 528 b 464 356 550 421 522 368 z m 294 344 b 222 418 251 344 222 374 l 247 418 b 294 376 247 392 264 376 b 340 418 322 376 340 393 l 365 418 b 294 344 364 372 336 344 z "},"̦":{"ha":0,"x_min":0,"x_max":0,"o":"m -247 -92 l -422 -92 l -472 -332 l -343 -332 z "},"ˉ":{"ha":694,"x_min":0,"x_max":0,"o":"m 600 931 l 94 931 l 94 804 l 600 804 z "},"´":{"ha":694,"x_min":0,"x_max":0,"o":"m 364 1031 l 267 794 l 408 794 l 547 1031 z "},"˘":{"ha":694,"x_min":0,"x_max":0,"o":"m 571 1000 l 442 1000 b 347 896 442 942 404 896 b 253 1000 290 896 253 942 l 124 1000 b 347 782 124 867 210 782 b 571 1000 485 782 571 867 z "},"ˇ":{"ha":694,"x_min":0,"x_max":0,"o":"m 596 1031 l 450 1031 l 347 899 l 244 1031 l 99 1031 l 251 794 l 443 794 z "},"¸":{"ha":694,"x_min":0,"x_max":0,"o":"m 264 4 b 408 -115 379 -32 408 -64 b 332 -189 408 -161 376 -189 b 233 -147 290 -189 256 -171 l 183 -246 b 349 -299 219 -279 269 -299 b 533 -140 458 -299 533 -239 b 322 47 533 -57 463 21 z "},"ˆ":{"ha":694,"x_min":0,"x_max":0,"o":"m 596 785 l 443 1022 l 251 1022 l 99 785 l 244 785 l 347 918 l 450 785 z "},"¨":{"ha":694,"x_min":0,"x_max":0,"o":"m 203 979 b 100 882 139 979 100 942 b 203 785 100 822 139 785 b 307 882 268 785 307 822 b 203 979 307 942 268 979 z m 494 979 b 392 882 432 979 392 942 b 494 785 392 822 432 785 b 600 882 560 785 600 822 b 494 979 600 942 560 979 z "},"˙":{"ha":694,"x_min":0,"x_max":0,"o":"m 347 1000 b 236 899 276 1000 236 963 b 347 797 236 835 276 797 b 460 899 419 797 460 835 b 347 1000 460 963 419 1000 z "},"`":{"ha":694,"x_min":0,"x_max":0,"o":"m 331 1031 l 147 1031 l 286 794 l 428 794 z "},"˝":{"ha":694,"x_min":0,"x_max":0,"o":"m 365 1031 l 196 1031 l 96 794 l 232 794 z m 642 1031 l 471 1031 l 372 794 l 508 794 z "},"¯":{"ha":694,"x_min":0,"x_max":0,"o":"m 600 931 l 94 931 l 94 804 l 600 804 z "},"˛":{"ha":721,"x_min":0,"x_max":0,"o":"m 489 19 l 407 53 b 182 -150 268 13 182 -44 b 365 -299 182 -244 260 -299 b 497 -269 417 -299 464 -290 l 469 -171 b 400 -186 450 -183 424 -186 b 319 -119 351 -186 319 -161 b 489 19 319 -72 364 -26 z "},"˚":{"ha":694,"x_min":0,"x_max":0,"o":"m 349 1111 b 165 944 236 1111 165 1046 b 349 778 165 843 236 778 b 531 944 461 778 531 843 b 349 1111 531 1046 461 1111 z m 349 1025 b 431 944 397 1025 431 993 b 349 865 431 897 397 865 b 267 944 300 865 267 897 b 349 1025 267 993 300 1025 z "},"˜":{"ha":694,"x_min":0,"x_max":0,"o":"m 614 997 l 497 997 b 439 913 490 942 474 913 b 256 997 385 913 360 997 b 81 789 146 997 88 928 l 197 789 b 256 874 204 844 221 874 b 440 789 311 874 335 789 b 614 997 547 789 607 858 z "}}}
